<svg xmlns="http://www.w3.org/2000/svg" viewBox="0 0 712.24 599.04"><defs><style>.e4f0aba2-d1c9-4514-b555-52dafe418064{fill:#00517c;}.b2496eba-a78f-4bb3-9a01-c41e951762af{fill:none;stroke:#00517c;stroke-miterlimit:10;stroke-width:8px;}</style></defs><g id="b917fe7f-7667-4635-84a2-fccd2599ebb9" data-name="Capa 2"><g id="e903bec3-b880-4db7-93dc-62805de0fd07" data-name="Capa 7"><path class="e4f0aba2-d1c9-4514-b555-52dafe418064" d="M480.89,393.87c-5.48-16.75-13.55-31.14-24-42.76a87.65,87.65,0,0,0-39.19-25.62,86.38,86.38,0,0,0-37.58-3.16,106.64,106.64,0,0,0-36.44,12.07,142.13,142.13,0,0,0-32.9,24.68c-21,20.83-37.2,48.16-46.93,79.05-12.17,38.6-12.8,78.42-1.77,112.13,5.49,16.75,13.56,31.14,24,42.76a87.68,87.68,0,0,0,39.18,25.62,86.43,86.43,0,0,0,37.59,3.16,106.64,106.64,0,0,0,36.44-12.07,142.34,142.34,0,0,0,32.9-24.68c21-20.83,37.19-48.16,46.93-79C491.3,467.4,491.93,427.58,480.89,393.87ZM469.94,503.11c-19.12,60.65-63.52,103.24-108.34,109.14a77.15,77.15,0,0,1-33.43-2.8c-48.45-15.27-73.32-76.81-61.24-143.72.06-.3,2.45-11.4,7.29-18.83,6.72-10.29,15.32-7.48,15.74.59.58,11.13-1.09,22.72,5.88,28.54,9.43,7.87,33.69,12.23,33.69,12.23a10.89,10.89,0,0,1,5.4-3.3c-14.35-5.64-28.28-6.89-34.42-14.65-11.13-14.07,2.05-40.81-6.21-48.62-8.49-8-4.56-18.61-1.65-24,22.63-37,55.56-61.46,88.73-65.81a77,77,0,0,1,33.43,2.79C469.18,351.82,493.86,427.23,469.94,503.11Z" transform="translate(0 -27.72)"/><path class="e4f0aba2-d1c9-4514-b555-52dafe418064" d="M347.46,506.69a.33.33,0,0,0-.45.21c-2.9,9.35-8.14,17.28-14.32,24.78a25.73,25.73,0,0,0-6,16.4,15.87,15.87,0,0,1-1,5.56c-1.29,3.26-3.44,4.48-6.69,3.44-5.86-1.87-11.81-2-17.85-1.82-1.9.07-3.81-.32-5.71-.29-5.23.07-7.68-3.57-10.09-7.33-.41-.65-1.06-1.16-1.44-1.82s-1.28-2.13-1-2.47a4.37,4.37,0,0,1,4.78-1c14.44,3.38,28.48-6.6,31.68-20.47,1.11-4.79,1.69-9.75,3.34-14.34A68.63,68.63,0,0,1,330,492.21c4.78-7.06,13.36-7.52,18.93-1a41.62,41.62,0,0,1,7.91,13.64c3.61,11,6.33,22.37,9.3,33.61.58,2.2,1,4.43,1.51,6.67a.34.34,0,0,0,.67-.11c-1.42-13.59-5.57-26.61-9-39.73.36-.2.6-.41.67-.37,5.47,3.32,10.85,1.3,16.27-.19,10.15-2.81,21.41-8,28.67-13.38a.33.33,0,0,0-.34-.57c-2.53,1.19-5,2.4-7.64,3.4-8.12,3.15-16.33,6.08-24.47,9.17a8.71,8.71,0,0,1-9.49-1.93c-5.9-5.45-12.08-10.7-17.23-16.81-7.66-9.12-17.57-13.69-28.65-16.56-2.62-.68-5.18-1.56-7.76-2.35-1.84-.57-1.07-1.64,0-1.91a11.89,11.89,0,0,0,4.08-.14.38.38,0,0,0,.06-.73c-1.2-.48-2.17-.82-3-1.17s-2.46-1.44-2.41-1.87c.05-1,1.64-1.21,3-1.25,1.1,0,2.24-.08,3.36-.1.84-.07.77-.6.23-.81a28.12,28.12,0,0,1-3.44-1.81c-.63-.44-1.67-.87-1.52-1.91a.27.27,0,0,1,0-.12c.33-.68,1.42-1,2.16-1,1.78-.19,3.58-.11,5.37-.14.83-.18.7-.7.14-1a22.16,22.16,0,0,1-2.8-1.4c-.49-.34-1.1-1.12-1-1.55a1.92,1.92,0,0,1,1.5-1.1,29.93,29.93,0,0,1,5.33.7c2,.45,3.93,1.12,6,1.76a.33.33,0,0,0,.43-.28,27.51,27.51,0,0,1,.6-3.73c.16-.57.81-1.33,1.31-1.38s1.21.59,1.51,1.11a11.29,11.29,0,0,1,1.21,3.07c1.87,8.74,7.47,14.66,14.56,19.51,7.7,5.26,15.42,10.51,23,15.9.47.33.93.69,1.37,1.07l1.14-1.11-1.11-1.33a.34.34,0,0,1,.08-.5c2.27-1.41,4.53-2.79,6.76-4.22,8-5.14,16-10.43,24.1-15.39a37,37,0,0,1,9.62-4.11c6.49-1.73,12.67-.88,18,3.7a.33.33,0,0,0,.5-.08l.17-.28a.33.33,0,0,0-.09-.44c-1.59-1.19-3.06-2.71-4.85-3.38-7.52-2.82-15-3.14-22.43.73a90.18,90.18,0,0,1-10.12,4.59c-6.15,2.32-8.94,1.06-11.46-5a.34.34,0,0,0-.37-.2c-3,.55-5.48,0-6.08-3.83-.09-.57-1.4-1.15-2.25-1.39-2.19-.61-3.77-1.8-3.41-4.2.28-1.87-.66-2.4-2-3.08-3.94-2-4.25-3.36-1.89-7.07a22.38,22.38,0,0,0,1.93-3.39c1.09-2.62,1-5.16-1.3-7.15-2.95-2.52-4.06-5.53-4.1-9.5-.06-5.8-1.14-11.57-1.43-17.38a35.36,35.36,0,0,1,6-21.7c10.07-15,23.73-24,42.39-24,10.22,0,19.93,2,28.91,7.08,15.48,8.71,22.52,22.25,22.74,39.71a61,61,0,0,1-5.7,26c-5.74,12.76-7.62,25.9-4.87,39.65,2.71,13.54,2.74,27-2,40.1-10.69,29.84-30,52.33-58.1,67a47.91,47.91,0,0,1-24.18,5.19c-15.47-.54-24.79-9.52-30.76-22.77-2.69-6-3.12-12.45-2.31-18.9a14.14,14.14,0,0,1,2.24-5.45c3.13-5,6.73-9.77,9.59-14.93,1.89-3.42,2.89-7.33,4.25-11a.34.34,0,0,0-.18-.42Z" transform="translate(0 -27.72)"/><path class="e4f0aba2-d1c9-4514-b555-52dafe418064" d="M282.24,502.63l-.93,4.77c-1.75-1.87-3.24-3.49-4.75-5.07-5.25-5.48-6.39-11.68-3.34-18.64.16-.35.06-.84.26-1.15.52-.84,1.14-1.63,1.72-2.43.77.66,1.89,1.17,2.25,2a28.35,28.35,0,0,0,7.88,11.17c9.1,7.51,18.06,8.3,28.37,2.69a135,135,0,0,1,15.39-6.87c-5.32,6.77-7.55,14.69-9.61,22.78-3.34,0-6.62,0-9.89.13a29.17,29.17,0,0,0-14,4c-2.81,1.64-5.94,3.22-9.05,1.24-3.32-2.12-3.68-5.69-3.42-9.38a41.36,41.36,0,0,0-.25-5.32Z" transform="translate(0 -27.72)"/><path class="e4f0aba2-d1c9-4514-b555-52dafe418064" d="M357.42,467.17a16.2,16.2,0,0,1-1.37-1.63c-.84-1.18-1.51-1.65-1.17-2.69.64-1.38,2.09-.7,3-.32.62.26,1.24.47,2.26.87a.14.14,0,0,0,.17-.2,12,12,0,0,1-.72-1.39c-.23-.66-.76-1.21-.18-2.21.52-.79,1.91-.38,2.5,0,2.25,1.45,4.37,3.13,7,5.06a.14.14,0,0,1,0,.25l-3.15,1a.14.14,0,0,0,0,.27c1.57.19,2.62.29,3.66.47a7.81,7.81,0,0,1,6.3,6.44c.31,2.12,0,4.08-2.29,5s-4,3.77-7.14,1.18c-3.86-3.17-8.64-5.22-12.26-8.68a18,18,0,0,1-1.73-1.86c-.51-.61.16-1.45,1.09-1.31s3.06.5,3.55.6C357.63,468.11,358.29,468.11,357.42,467.17Z" transform="translate(0 -27.72)"/><path class="e4f0aba2-d1c9-4514-b555-52dafe418064" d="M170.45,319.24h15.38V626.76H148.49V402.27l-87,130H234.15v33H0Z" transform="translate(0 -27.72)"/><path class="e4f0aba2-d1c9-4514-b555-52dafe418064" d="M648.54,319.24h15.38V626.76H626.58V402.27l-87,130H712.24v33H478.09Z" transform="translate(0 -27.72)"/><path class="b2496eba-a78f-4bb3-9a01-c41e951762af" d="M480.89,393.87c-5.48-16.75-13.55-31.14-24-42.76a87.65,87.65,0,0,0-39.19-25.62,86.38,86.38,0,0,0-37.58-3.16,106.64,106.64,0,0,0-36.44,12.07,142.13,142.13,0,0,0-32.9,24.68c-21,20.83-37.2,48.16-46.93,79.05-12.17,38.6-12.8,78.42-1.77,112.13,5.49,16.75,13.56,31.14,24,42.76a87.68,87.68,0,0,0,39.18,25.62,86.43,86.43,0,0,0,37.59,3.16,106.64,106.64,0,0,0,36.44-12.07,142.34,142.34,0,0,0,32.9-24.68c21-20.83,37.19-48.16,46.93-79C491.3,467.4,491.93,427.58,480.89,393.87Z" transform="translate(0 -27.72)"/><path class="e4f0aba2-d1c9-4514-b555-52dafe418064" d="M78.67,72a88.29,88.29,0,0,1,18.38-23.2,82.63,82.63,0,0,1,25.12-15.57,79.81,79.81,0,0,1,29.63-5.53q15.47,0,27.42,5.83a56.12,56.12,0,0,1,19.89,16,60.91,60.91,0,0,1,11.16,23.21,73.47,73.47,0,0,1,1.2,27.72,87.5,87.5,0,0,1-9.74,28.43,89.72,89.72,0,0,1-18.39,23.41,84.48,84.48,0,0,1-25,15.77,77.83,77.83,0,0,1-29.83,5.72q-15.68,0-27.63-6a56.7,56.7,0,0,1-19.79-16.28,61.36,61.36,0,0,1-11-23.4A74.45,74.45,0,0,1,69,100.45,86.5,86.5,0,0,1,78.67,72Zm15.47,47a41.4,41.4,0,0,0,6.33,16,34,34,0,0,0,12.35,11.15,37.52,37.52,0,0,0,18.09,4.12,49,49,0,0,0,19.89-3.72,54.78,54.78,0,0,0,16.77-10.85,65.71,65.71,0,0,0,12.36-16,57.3,57.3,0,0,0,6.43-37.87A42.56,42.56,0,0,0,180,65.8a33.89,33.89,0,0,0-12.36-11.26q-7.63-4.11-18.28-4.11a51.89,51.89,0,0,0-19.79,3.81A55,55,0,0,0,112.82,65a62.09,62.09,0,0,0-12.35,16.07,60.39,60.39,0,0,0-6.53,19.39A57.54,57.54,0,0,0,94.14,119Z" transform="translate(0 -27.72)"/><path class="e4f0aba2-d1c9-4514-b555-52dafe418064" d="M235.18,72a88.29,88.29,0,0,1,18.38-23.2,82.46,82.46,0,0,1,25.11-15.57,79.9,79.9,0,0,1,29.64-5.53q15.46,0,27.42,5.83a56.12,56.12,0,0,1,19.89,16,60.75,60.75,0,0,1,11.15,23.21A73.67,73.67,0,0,1,368,100.45a87.28,87.28,0,0,1-9.75,28.43,89.89,89.89,0,0,1-18.38,23.41,84.73,84.73,0,0,1-25,15.77A77.88,77.88,0,0,1,285,173.78q-15.67,0-27.62-6a56.61,56.61,0,0,1-19.79-16.28,61.07,61.07,0,0,1-11-23.4,74.44,74.44,0,0,1-1.11-27.63A86.52,86.52,0,0,1,235.18,72Zm15.47,47A41.54,41.54,0,0,0,257,135a34.13,34.13,0,0,0,12.36,11.15,37.51,37.51,0,0,0,18.08,4.12,49,49,0,0,0,19.89-3.72,54.71,54.71,0,0,0,16.78-10.85,65.68,65.68,0,0,0,12.35-16,57.3,57.3,0,0,0,6.43-37.87,42.24,42.24,0,0,0-6.33-16.07,33.79,33.79,0,0,0-12.35-11.26q-7.64-4.11-18.28-4.11a51.85,51.85,0,0,0-19.79,3.81A54.85,54.85,0,0,0,269.33,65,61.91,61.91,0,0,0,257,81.06a60.63,60.63,0,0,0-6.53,19.39A57.53,57.53,0,0,0,250.65,119Z" transform="translate(0 -27.72)"/><path class="e4f0aba2-d1c9-4514-b555-52dafe418064" d="M425.43,30.13l-24.1,140.64H378L401.93,30.13Zm-9.84,0h26.92q14.06,0,24.21,5.43a35.22,35.22,0,0,1,15.17,15.27q5,9.84,3.21,22.9A46.56,46.56,0,0,1,475.46,97a51.78,51.78,0,0,1-19.79,15.17,64.7,64.7,0,0,1-26.62,5.32H400.72l3.62-20.9h26.92a36.49,36.49,0,0,0,14.16-2.71,28.79,28.79,0,0,0,10.95-7.83,26.22,26.22,0,0,0,5.83-12.36q1.2-7.23-1.31-12.25a17.84,17.84,0,0,0-7.73-7.84,26.93,26.93,0,0,0-12.86-2.81H412.17Z" transform="translate(0 -27.72)"/><path class="e4f0aba2-d1c9-4514-b555-52dafe418064" d="M514.33,139.43a32.87,32.87,0,0,0,10.15,9.44,26.88,26.88,0,0,0,13.86,3.42,27.83,27.83,0,0,0,13.16-3,23.1,23.1,0,0,0,8.94-8,21,21,0,0,0,3.42-10.65q.2-7-3.12-11.25a27.25,27.25,0,0,0-9.14-7.24q-5.82-3-13.06-6.22a97.27,97.27,0,0,1-10.44-5.43,55.86,55.86,0,0,1-10.25-7.83,35.64,35.64,0,0,1-7.73-11A33,33,0,0,1,507.4,66.9a38.18,38.18,0,0,1,6.83-20.19,42.8,42.8,0,0,1,16.68-14.06,51.33,51.33,0,0,1,23.71-4.93q11.85,0,20.49,4.22a43.66,43.66,0,0,1,14.46,11.15,55,55,0,0,1,9,15L579.13,68.31a60.55,60.55,0,0,0-5.73-9.55A25.6,25.6,0,0,0,565,51.43a26.3,26.3,0,0,0-12.76-2.81,24.75,24.75,0,0,0-10.94,2.21,16.51,16.51,0,0,0-6.94,6,17.22,17.22,0,0,0-2.61,8.63A14.08,14.08,0,0,0,533.42,73,21.35,21.35,0,0,0,539,79.46a49.06,49.06,0,0,0,8.53,5.42q4.92,2.52,10.75,4.92a63.17,63.17,0,0,1,15,8,39.66,39.66,0,0,1,11.25,12.56q4.32,7.53,3.92,18.58a41.91,41.91,0,0,1-7.84,23.11A51.4,51.4,0,0,1,561.85,168a53.77,53.77,0,0,1-24.71,5.82,47.65,47.65,0,0,1-21.8-4.92,51.27,51.27,0,0,1-16.58-13.16,61.28,61.28,0,0,1-10.44-18.08l18.08-12.05A84.73,84.73,0,0,0,514.33,139.43Z" transform="translate(0 -27.72)"/><path class="e4f0aba2-d1c9-4514-b555-52dafe418064" d="M611.37,151.28a14.14,14.14,0,0,1,10-3.82,14.29,14.29,0,0,1,10.24,3.82,12.74,12.74,0,0,1,4,9.65,13,13,0,0,1-4,9.74,14.07,14.07,0,0,1-10.24,3.92,13.93,13.93,0,0,1-10-3.92,12.88,12.88,0,0,1-4.12-9.74A12.58,12.58,0,0,1,611.37,151.28ZM656.88,30.13,635.58,128H618.5l11.66-97.85Z" transform="translate(0 -27.72)"/><path class="e4f0aba2-d1c9-4514-b555-52dafe418064" d="M54.78,217.24v49.87H47.06V217.24Zm-3.14,0h9.22a18.89,18.89,0,0,1,8.66,1.88,13.69,13.69,0,0,1,5.72,5.35,16,16,0,0,1,2,8.23,16.18,16.18,0,0,1-2,8.26,13.64,13.64,0,0,1-5.72,5.38,18.77,18.77,0,0,1-8.66,1.89H51.64v-7.41h9.22a9.53,9.53,0,0,0,6.41-2.07,7.51,7.51,0,0,0,2.42-6.05,7.42,7.42,0,0,0-2.42-6,9.62,9.62,0,0,0-6.41-2H51.64Z" transform="translate(0 -27.72)"/><path class="e4f0aba2-d1c9-4514-b555-52dafe418064" d="M89.37,259.91a4.08,4.08,0,0,0,1.89,1.53,7.53,7.53,0,0,0,3,.54,10.4,10.4,0,0,0,4.12-.78,6.2,6.2,0,0,0,2.88-2.5,8.65,8.65,0,0,0,1-4.56l1,3.71a9.47,9.47,0,0,1-1.5,5.38,9.77,9.77,0,0,1-4.06,3.42,13.46,13.46,0,0,1-5.69,1.17,12.39,12.39,0,0,1-5.52-1.17,8.78,8.78,0,0,1-3.7-3.35,9.85,9.85,0,0,1-1.3-5.17A10.74,10.74,0,0,1,83.25,252a10.49,10.49,0,0,1,4.61-3.74A16.34,16.34,0,0,1,94.47,247a14.1,14.1,0,0,1,4.67.71,14.52,14.52,0,0,1,3.44,1.64,7.85,7.85,0,0,1,1.89,1.64V255a14,14,0,0,0-4.12-2.39,14.26,14.26,0,0,0-4.84-.75,9.36,9.36,0,0,0-3.76.68,4.84,4.84,0,0,0-2.28,1.92,5.55,5.55,0,0,0-.76,3A4.4,4.4,0,0,0,89.37,259.91Zm-5-22.44a30,30,0,0,1,5.17-2.64,19,19,0,0,1,7.19-1.28,16.52,16.52,0,0,1,6.54,1.21,10.23,10.23,0,0,1,4.41,3.46,9.24,9.24,0,0,1,1.61,5.52v23.37h-6.94V244.59a4.07,4.07,0,0,0-1.73-3.52,7,7,0,0,0-4.22-1.25,13.34,13.34,0,0,0-4,.57,16.64,16.64,0,0,0-3.18,1.32c-.89.5-1.58.91-2.06,1.25Zm11.38-8.19-4-2.5,9.81-11.4,6,3.21Z" transform="translate(0 -27.72)"/><path class="e4f0aba2-d1c9-4514-b555-52dafe418064" d="M117.29,241.35a14.56,14.56,0,0,1,5.39-5.73,14,14,0,0,1,7.23-2,11.11,11.11,0,0,1,6.63,2,13.75,13.75,0,0,1,4.52,5.81,25.69,25.69,0,0,1,0,18.17,13.65,13.65,0,0,1-4.52,5.8,11.05,11.05,0,0,1-6.63,2,14,14,0,0,1-7.23-2,14.47,14.47,0,0,1-5.39-5.77,21.75,21.75,0,0,1,0-18.35Zm5.56,28a8,8,0,0,0,1.14,4,7.54,7.54,0,0,0,3,2.78,9.31,9.31,0,0,0,4.38,1,8.45,8.45,0,0,0,7.55-4.63,12.63,12.63,0,0,0,1.27-6.05V234.34h6.94V266.4a19.55,19.55,0,0,1-2.2,9.76,14.33,14.33,0,0,1-5.72,5.73,15.94,15.94,0,0,1-7.65,1.89,17.84,17.84,0,0,1-8.37-1.82,12.9,12.9,0,0,1-5.33-5.09,16.1,16.1,0,0,1-2-7.55Zm1-13.18a8.52,8.52,0,0,0,3.3,3.45,8.83,8.83,0,0,0,4.48,1.18,8,8,0,0,0,4-1.14,8.63,8.63,0,0,0,3.27-3.46,11.4,11.4,0,0,0,1.27-5.59,12,12,0,0,0-.75-4.45,10,10,0,0,0-2-3.21,8.17,8.17,0,0,0-2.78-2,7.83,7.83,0,0,0-3-.64,8.83,8.83,0,0,0-4.48,1.18,8.52,8.52,0,0,0-3.3,3.45,11.63,11.63,0,0,0-1.25,5.63A11.45,11.45,0,0,0,123.83,256.14Z" transform="translate(0 -27.72)"/><path class="e4f0aba2-d1c9-4514-b555-52dafe418064" d="M157,218a4.24,4.24,0,0,1,3.1-1.35,4.17,4.17,0,0,1,3.17,1.35,5,5,0,0,1,0,6.66,4.11,4.11,0,0,1-3.17,1.39,4.17,4.17,0,0,1-3.1-1.39,4.81,4.81,0,0,1,0-6.66Zm6.57,16.39v32.77h-6.93V234.34Z" transform="translate(0 -27.72)"/><path class="e4f0aba2-d1c9-4514-b555-52dafe418064" d="M191.24,241.67a4.94,4.94,0,0,0-4.25-1.85,6.67,6.67,0,0,0-3.46.89,6.13,6.13,0,0,0-2.36,2.57,8.53,8.53,0,0,0-.85,3.88v20h-7.06V234.34h7.06v5a10.39,10.39,0,0,1,3.7-4.34,9.87,9.87,0,0,1,5.39-1.43q5.1,0,7.78,3.39t2.68,9.29v20.81h-7.25v-20A9.15,9.15,0,0,0,191.24,241.67Z" transform="translate(0 -27.72)"/><path class="e4f0aba2-d1c9-4514-b555-52dafe418064" d="M214.06,259.73a4.37,4.37,0,0,0,2,1.75,7.06,7.06,0,0,0,2.91.57,7.94,7.94,0,0,0,3.82-.93,7,7,0,0,0,2.81-2.74,8.13,8.13,0,0,0,1.08-4.24l1,4.28a8.15,8.15,0,0,1-1.67,5.23,10.1,10.1,0,0,1-4.18,3.14,13.4,13.4,0,0,1-5.14,1,11.52,11.52,0,0,1-5.23-1.21,9.3,9.3,0,0,1-3.85-3.56,10.72,10.72,0,0,1-1.44-5.7,9.79,9.79,0,0,1,3.07-7.59c2.05-1.88,5-2.81,8.7-2.81a16.7,16.7,0,0,1,5.19.71,14.64,14.64,0,0,1,3.63,1.67,8.39,8.39,0,0,1,2,1.75V255a13.49,13.49,0,0,0-4.31-2.28,16.06,16.06,0,0,0-4.84-.72,9.08,9.08,0,0,0-3.6.61,4.51,4.51,0,0,0-2.06,1.67,4.8,4.8,0,0,0-.69,2.64A5.27,5.27,0,0,0,214.06,259.73Zm-5.82-22.26a28.9,28.9,0,0,1,5.27-2.64,20.14,20.14,0,0,1,7.42-1.28,16.81,16.81,0,0,1,6.57,1.21,10.44,10.44,0,0,1,4.48,3.46,9.11,9.11,0,0,1,1.63,5.52v23.37h-6.93V245.24a5.8,5.8,0,0,0-.49-2.57,4.47,4.47,0,0,0-1.34-1.64,5.36,5.36,0,0,0-2-.92,10.88,10.88,0,0,0-2.55-.29,14.14,14.14,0,0,0-4,.54,14.71,14.71,0,0,0-3.2,1.28,16.78,16.78,0,0,0-2,1.25Z" transform="translate(0 -27.72)"/><path class="e4f0aba2-d1c9-4514-b555-52dafe418064" d="M279.45,241.67a4.94,4.94,0,0,0-4.25-1.85,6.67,6.67,0,0,0-3.46.89,6.13,6.13,0,0,0-2.36,2.57,8.4,8.4,0,0,0-.85,3.88v20h-7.06V234.34h7.06v5a10.39,10.39,0,0,1,3.7-4.34,9.87,9.87,0,0,1,5.39-1.43q5.1,0,7.78,3.39t2.68,9.29v20.81h-7.25v-20A9.15,9.15,0,0,0,279.45,241.67Z" transform="translate(0 -27.72)"/><path class="e4f0aba2-d1c9-4514-b555-52dafe418064" d="M296.94,241.82a15.67,15.67,0,0,1,5.79-6,16,16,0,0,1,8.31-2.18,15.61,15.61,0,0,1,14,8.2,19.35,19.35,0,0,1,0,17.77,16.38,16.38,0,0,1-22.36,6.06,15.64,15.64,0,0,1-5.79-6.06,19.68,19.68,0,0,1,0-17.77Zm6.31,14.28a9.16,9.16,0,0,0,3.21,3.63,8.54,8.54,0,0,0,9.12,0,9.07,9.07,0,0,0,3.24-3.63,11.75,11.75,0,0,0,1.17-5.38,12,12,0,0,0-1.17-5.41,8.91,8.91,0,0,0-3.24-3.64,8.76,8.76,0,0,0-9.12,0,9,9,0,0,0-3.21,3.64,12,12,0,0,0-1.17,5.41A11.75,11.75,0,0,0,303.25,256.1Z" transform="translate(0 -27.72)"/><path class="e4f0aba2-d1c9-4514-b555-52dafe418064" d="M358.54,265.68a14.24,14.24,0,0,1-5.4-6,20.16,20.16,0,0,1-1.89-9,20,20,0,0,1,1.93-9.05,14.11,14.11,0,0,1,5.46-5.95,15.92,15.92,0,0,1,8.3-2.1,15.53,15.53,0,0,1,8.11,2,13.14,13.14,0,0,1,5.13,5.73,20.67,20.67,0,0,1,1.8,9c0,.38,0,.78,0,1.21a6.18,6.18,0,0,1-.1.92H355.43v-5.27h20.4l-2.15,3.28a10,10,0,0,0,.42-1.18,4.51,4.51,0,0,0,.23-1.24,10.22,10.22,0,0,0-.95-4.56,7.29,7.29,0,0,0-2.61-3,7.09,7.09,0,0,0-3.89-1.06,7.54,7.54,0,0,0-7.46,5,17.1,17.1,0,0,0-1.05,6,16.17,16.17,0,0,0,1,6,7.78,7.78,0,0,0,2.91,3.74,8.26,8.26,0,0,0,4.67,1.28,9.73,9.73,0,0,0,5-1.28,10,10,0,0,0,3.59-3.92l6.08,2.71a16.4,16.4,0,0,1-6.08,6.62,17.18,17.18,0,0,1-9,2.21A15.11,15.11,0,0,1,358.54,265.68Z" transform="translate(0 -27.72)"/><path class="e4f0aba2-d1c9-4514-b555-52dafe418064" d="M406.7,241.67a5,5,0,0,0-4.25-1.85,6.71,6.71,0,0,0-3.47.89,6.11,6.11,0,0,0-2.35,2.57,8.4,8.4,0,0,0-.85,3.88v20h-7.06V234.34h7.06v5a10.45,10.45,0,0,1,3.69-4.34,9.91,9.91,0,0,1,5.4-1.43q5.1,0,7.78,3.39t2.68,9.29v20.81h-7.26v-20A9.22,9.22,0,0,0,406.7,241.67Z" transform="translate(0 -27.72)"/><path class="e4f0aba2-d1c9-4514-b555-52dafe418064" d="M430.3,256.17a9.63,9.63,0,0,0,3.37,3.67,8.68,8.68,0,0,0,4.74,1.36,11.87,11.87,0,0,0,4.12-.72,11.23,11.23,0,0,0,3.47-2,8.44,8.44,0,0,0,2.22-2.85v8.48a10.66,10.66,0,0,1-4.25,2.7,16.66,16.66,0,0,1-5.89,1,16.1,16.1,0,0,1-8.33-2.17,15.43,15.43,0,0,1-5.82-6.06,19.6,19.6,0,0,1,0-17.77,15.46,15.46,0,0,1,5.82-6,16.11,16.11,0,0,1,8.33-2.18,16.89,16.89,0,0,1,5.89,1,10.78,10.78,0,0,1,4.25,2.71v8.48a7.59,7.59,0,0,0-2.26-2.89,12.16,12.16,0,0,0-3.49-2,11.92,11.92,0,0,0-4.06-.71,8.67,8.67,0,0,0-4.74,1.35,9.67,9.67,0,0,0-3.37,3.71,12.51,12.51,0,0,0,0,10.86Z" transform="translate(0 -27.72)"/><path class="e4f0aba2-d1c9-4514-b555-52dafe418064" d="M455.84,241.82a15.57,15.57,0,0,1,5.78-6,16,16,0,0,1,8.31-2.18,15.79,15.79,0,0,1,8.27,2.18,16,16,0,0,1,5.79,6,19.35,19.35,0,0,1,0,17.77,16.39,16.39,0,0,1-22.37,6.06,15.54,15.54,0,0,1-5.78-6.06,19.6,19.6,0,0,1,0-17.77Zm6.31,14.28a9.06,9.06,0,0,0,3.2,3.63,8.54,8.54,0,0,0,9.12,0,8.93,8.93,0,0,0,3.24-3.63,11.62,11.62,0,0,0,1.18-5.38,11.87,11.87,0,0,0-1.18-5.41,8.77,8.77,0,0,0-3.24-3.64,8.76,8.76,0,0,0-9.12,0,8.89,8.89,0,0,0-3.2,3.64,11.87,11.87,0,0,0-1.18,5.41A11.62,11.62,0,0,0,462.15,256.1Z" transform="translate(0 -27.72)"/><path class="e4f0aba2-d1c9-4514-b555-52dafe418064" d="M510.8,241.67a5,5,0,0,0-4.25-1.85,6.71,6.71,0,0,0-3.47.89,6.11,6.11,0,0,0-2.35,2.57,8.4,8.4,0,0,0-.85,3.88v20h-7.07V234.34h7.07v5a10.37,10.37,0,0,1,3.69-4.34,9.91,9.91,0,0,1,5.4-1.43q5.1,0,7.78,3.39c1.78,2.25,2.68,5.35,2.68,9.29v20.81h-7.26v-20A9.22,9.22,0,0,0,510.8,241.67Z" transform="translate(0 -27.72)"/><path class="e4f0aba2-d1c9-4514-b555-52dafe418064" d="M541.33,234.34v6.76H524.27v-6.76Zm-5-11.4v44.17h-7V222.94Z" transform="translate(0 -27.72)"/><path class="e4f0aba2-d1c9-4514-b555-52dafe418064" d="M553.17,267.11h-7V234.34h7Zm7.13-25.86a4.75,4.75,0,0,0-2.16-.43,4.12,4.12,0,0,0-2.88,1,5.63,5.63,0,0,0-1.6,2.74,15.11,15.11,0,0,0-.49,4.1l-2.36-1.5a16.93,16.93,0,0,1,1.35-6.95,12.94,12.94,0,0,1,3.46-4.81,6.86,6.86,0,0,1,4.41-1.78,8.71,8.71,0,0,1,3.08.54,5.13,5.13,0,0,1,2.42,1.89l-3.4,6.48A9.19,9.19,0,0,0,560.3,241.25Z" transform="translate(0 -27.72)"/><path class="e4f0aba2-d1c9-4514-b555-52dafe418064" d="M575.53,259.73a4.37,4.37,0,0,0,2,1.75,7,7,0,0,0,2.91.57,7.94,7.94,0,0,0,3.82-.93,7.17,7.17,0,0,0,2.81-2.74,8.13,8.13,0,0,0,1.08-4.24l1.05,4.28a8.15,8.15,0,0,1-1.67,5.23,10.13,10.13,0,0,1-4.19,3.14,13.35,13.35,0,0,1-5.13,1,11.49,11.49,0,0,1-5.23-1.21,9.38,9.38,0,0,1-3.86-3.56,10.72,10.72,0,0,1-1.44-5.7,9.8,9.8,0,0,1,3.08-7.59c2-1.88,4.94-2.81,8.69-2.81a16.72,16.72,0,0,1,5.2.71,14.64,14.64,0,0,1,3.63,1.67,8.39,8.39,0,0,1,2,1.75V255a13.43,13.43,0,0,0-4.32-2.28,16,16,0,0,0-4.84-.72,9,9,0,0,0-3.59.61,4.51,4.51,0,0,0-2.06,1.67,4.8,4.8,0,0,0-.69,2.64A5.27,5.27,0,0,0,575.53,259.73Zm-5.82-22.26a28.9,28.9,0,0,1,5.27-2.64,20.1,20.1,0,0,1,7.42-1.28,16.81,16.81,0,0,1,6.57,1.21,10.44,10.44,0,0,1,4.48,3.46,9.11,9.11,0,0,1,1.63,5.52v23.37h-6.93V245.24a5.8,5.8,0,0,0-.49-2.57,4.57,4.57,0,0,0-1.34-1.64,5.4,5.4,0,0,0-2-.92,10.76,10.76,0,0,0-2.55-.29,14.12,14.12,0,0,0-4,.54,14.8,14.8,0,0,0-3.21,1.28,16.49,16.49,0,0,0-2,1.25Z" transform="translate(0 -27.72)"/><path class="e4f0aba2-d1c9-4514-b555-52dafe418064" d="M603.06,241.5a14.77,14.77,0,0,1,5.39-5.85,13.82,13.82,0,0,1,7.23-2,11,11,0,0,1,6.64,2.07,14,14,0,0,1,4.51,5.88,25.82,25.82,0,0,1,0,18.27,14,14,0,0,1-4.51,5.92,11.05,11.05,0,0,1-6.64,2.06,13.82,13.82,0,0,1-7.23-2,14.59,14.59,0,0,1-5.39-5.88,21.88,21.88,0,0,1,0-18.41Zm6.54,14.85a8.6,8.6,0,0,0,7.78,4.77,7.65,7.65,0,0,0,4-1.21,9.15,9.15,0,0,0,3.27-3.52,13.18,13.18,0,0,0,0-11.33,9.25,9.25,0,0,0-3.27-3.53,7.65,7.65,0,0,0-4-1.21,8.66,8.66,0,0,0-4.48,1.21,8.83,8.83,0,0,0-3.3,3.56,13.4,13.4,0,0,0,0,11.26Zm23.47-44.81v55.57H626V211.54Z" transform="translate(0 -27.72)"/><path class="e4f0aba2-d1c9-4514-b555-52dafe418064" d="M647,259.73a4.37,4.37,0,0,0,2,1.75,7,7,0,0,0,2.91.57,7.94,7.94,0,0,0,3.82-.93,7.17,7.17,0,0,0,2.81-2.74,8.13,8.13,0,0,0,1.08-4.24l1,4.28a8.15,8.15,0,0,1-1.67,5.23,10.13,10.13,0,0,1-4.19,3.14,13.35,13.35,0,0,1-5.13,1,11.49,11.49,0,0,1-5.23-1.21,9.38,9.38,0,0,1-3.86-3.56,10.72,10.72,0,0,1-1.44-5.7,9.8,9.8,0,0,1,3.08-7.59c2-1.88,4.94-2.81,8.69-2.81a16.72,16.72,0,0,1,5.2.71,14.64,14.64,0,0,1,3.63,1.67,8.39,8.39,0,0,1,2,1.75V255a13.43,13.43,0,0,0-4.32-2.28,16,16,0,0,0-4.84-.72,9,9,0,0,0-3.59.61,4.51,4.51,0,0,0-2.06,1.67,4.8,4.8,0,0,0-.69,2.64A5.27,5.27,0,0,0,647,259.73Zm-5.82-22.26a28.9,28.9,0,0,1,5.27-2.64,20.1,20.1,0,0,1,7.42-1.28,16.81,16.81,0,0,1,6.57,1.21,10.5,10.5,0,0,1,4.48,3.46,9.11,9.11,0,0,1,1.63,5.52v23.37h-6.93V245.24a5.8,5.8,0,0,0-.49-2.57,4.57,4.57,0,0,0-1.34-1.64,5.4,5.4,0,0,0-2-.92,10.76,10.76,0,0,0-2.55-.29,14.12,14.12,0,0,0-4,.54,14.8,14.8,0,0,0-3.21,1.28,16.49,16.49,0,0,0-2,1.25Z" transform="translate(0 -27.72)"/></g></g></svg>