<svg xmlns="http://www.w3.org/2000/svg" viewBox="0 0 994.82 170.34"><defs><style>.efed762c-12a7-4d69-b00c-3b05ae8965de{fill:#241a43;}</style></defs><g id="a1df3a78-8bd8-4ac1-b121-d0ac7b2b243d" data-name="Capa 2"><g id="b1da1a61-fa6f-450b-99fd-691ac61a449d" data-name="Capa 4"><path class="efed762c-12a7-4d69-b00c-3b05ae8965de" d="M41.44,114.55l-1.56,3.51L19.55,166.15H1L64.51,22.48,128,166.15H109.46L89.53,119.24,88,115.33,64.51,60.2Zm-6.84-5.09H95.2l5.86,15.64H28.73Z" transform="translate(-0.98 -22.36)"/><path class="efed762c-12a7-4d69-b00c-3b05ae8965de" d="M161.26,29.32V166.15H144.65V29.32Zm-7.43,136.83V149.53H185.7a59.4,59.4,0,0,0,21.11-3.61,46.52,46.52,0,0,0,16.42-10.36,45.86,45.86,0,0,0,10.55-16.32,59,59,0,0,0,3.72-21.51,59,59,0,0,0-3.72-21.5,45.86,45.86,0,0,0-10.55-16.32,46.52,46.52,0,0,0-16.42-10.36,59.4,59.4,0,0,0-21.11-3.62H153.83V29.32H185.7q19.94,0,35.38,8.6a62.61,62.61,0,0,1,24.24,23.95q8.79,15.34,8.79,35.86t-8.79,35.87a62.48,62.48,0,0,1-24.24,24q-15.45,8.59-35.38,8.6Z" transform="translate(-0.98 -22.36)"/><path class="efed762c-12a7-4d69-b00c-3b05ae8965de" d="M397.78,29.32V173L294.18,64.31V166.15H277.57V22.48l103.6,108.68V29.32Z" transform="translate(-0.98 -22.36)"/><path class="efed762c-12a7-4d69-b00c-3b05ae8965de" d="M426.14,29.1v59h-9.77v-59Zm-3.62,0h26.37V38H422.52Zm0,23.67H448v8.68H422.52Z" transform="translate(-0.98 -22.36)"/><path class="efed762c-12a7-4d69-b00c-3b05ae8965de" d="M463.42,86.39a17.42,17.42,0,0,1-6.95-7.08A22.07,22.07,0,0,1,454,68.7,21.94,21.94,0,0,1,456.51,58a17.33,17.33,0,0,1,7-7,22.08,22.08,0,0,1,10.7-2.48,21.46,21.46,0,0,1,10.45,2.36,16,16,0,0,1,6.61,6.78,22.63,22.63,0,0,1,2.32,10.65c0,.46,0,.93,0,1.44a6.17,6.17,0,0,1-.13,1.09h-34V64.57H485.7l-2.78,3.87a10.83,10.83,0,0,0,.55-1.39,5,5,0,0,0,.29-1.47,11.14,11.14,0,0,0-1.22-5.39,8.85,8.85,0,0,0-3.37-3.54,9.71,9.71,0,0,0-5-1.26,11,11,0,0,0-5.9,1.51,9.47,9.47,0,0,0-3.7,4.38,18.22,18.22,0,0,0-1.35,7.08,17.89,17.89,0,0,0,1.26,7.12,9.35,9.35,0,0,0,3.75,4.42,11.35,11.35,0,0,0,6,1.52,13.36,13.36,0,0,0,6.49-1.52,12.17,12.17,0,0,0,4.63-4.63l7.84,3.2a20.19,20.19,0,0,1-7.84,7.83,23.85,23.85,0,0,1-11.54,2.61A20.93,20.93,0,0,1,463.42,86.39Z" transform="translate(-0.98 -22.36)"/><path class="efed762c-12a7-4d69-b00c-3b05ae8965de" d="M518.89,49.32v8h-22v-8Zm-6.48-13.48V88.07h-9V35.84Z" transform="translate(-0.98 -22.36)"/><path class="efed762c-12a7-4d69-b00c-3b05ae8965de" d="M531.78,79.35a5.55,5.55,0,0,0,2.57,2.07,9.8,9.8,0,0,0,3.75.67A11,11,0,0,0,543,81a9,9,0,0,0,5-8.26l1.35,5.05a9.16,9.16,0,0,1-2.15,6.2,13.09,13.09,0,0,1-5.39,3.7,18.51,18.51,0,0,1-6.62,1.22,15.81,15.81,0,0,1-6.73-1.43,11.67,11.67,0,0,1-5-4.21,11.83,11.83,0,0,1-1.86-6.74,11.12,11.12,0,0,1,4-9q4-3.33,11.21-3.33a23.58,23.58,0,0,1,6.69.84,20.69,20.69,0,0,1,4.68,2,10.78,10.78,0,0,1,2.61,2.07v4.63a18.21,18.21,0,0,0-5.56-2.69,22.27,22.27,0,0,0-6.23-.85,12.51,12.51,0,0,0-4.64.72,5.79,5.79,0,0,0-2.65,2,5.3,5.3,0,0,0-.89,3.12A5.81,5.81,0,0,0,531.78,79.35ZM524.28,53a37.72,37.72,0,0,1,6.78-3.12,28,28,0,0,1,9.57-1.52,23,23,0,0,1,8.46,1.44,13.27,13.27,0,0,1,5.77,4.08A10.15,10.15,0,0,1,557,60.44V88.07H548V62.21a6.4,6.4,0,0,0-.63-3,5.39,5.39,0,0,0-1.73-1.94,7.35,7.35,0,0,0-2.61-1.1,15.48,15.48,0,0,0-3.29-.33,20,20,0,0,0-5.09.63A20.48,20.48,0,0,0,530.56,58,22.31,22.31,0,0,0,528,59.43Z" transform="translate(-0.98 -22.36)"/><path class="efed762c-12a7-4d69-b00c-3b05ae8965de" d="M576.68,22.36V88.07h-9.1V22.36Z" transform="translate(-0.98 -22.36)"/><path class="efed762c-12a7-4d69-b00c-3b05ae8965de" d="M620,86.39a17.48,17.48,0,0,1-6.95-7.08,22.07,22.07,0,0,1-2.44-10.61A21.94,21.94,0,0,1,613.12,58a17.27,17.27,0,0,1,7-7,22.05,22.05,0,0,1,10.7-2.48,21.49,21.49,0,0,1,10.45,2.36,16.07,16.07,0,0,1,6.61,6.78,22.76,22.76,0,0,1,2.32,10.65c0,.46,0,.93-.05,1.44a7.66,7.66,0,0,1-.12,1.09H616V64.57h26.29l-2.78,3.87a11,11,0,0,0,.54-1.39,4.77,4.77,0,0,0,.3-1.47,11.26,11.26,0,0,0-1.22-5.39,8.91,8.91,0,0,0-3.37-3.54,9.75,9.75,0,0,0-5-1.26,11,11,0,0,0-5.89,1.51,9.49,9.49,0,0,0-3.71,4.38,18.59,18.59,0,0,0-1.35,7.08,17.71,17.71,0,0,0,1.27,7.12,9.35,9.35,0,0,0,3.75,4.42,11.33,11.33,0,0,0,6,1.52,13.38,13.38,0,0,0,6.49-1.52A12.24,12.24,0,0,0,642,75.27l7.83,3.2A20.17,20.17,0,0,1,642,86.3a23.85,23.85,0,0,1-11.54,2.61A21,21,0,0,1,620,86.39Z" transform="translate(-0.98 -22.36)"/><path class="efed762c-12a7-4d69-b00c-3b05ae8965de" d="M682.07,58q-1.77-2.19-5.48-2.19a9.21,9.21,0,0,0-4.46,1,7.45,7.45,0,0,0-3,3A9.33,9.33,0,0,0,668,64.48V88.07h-9.1V49.32H668v6a12.66,12.66,0,0,1,4.76-5.14,13.65,13.65,0,0,1,7-1.68q6.57,0,10,4t3.46,11v24.6h-9.35V64.48Q683.84,60.19,682.07,58Z" transform="translate(-0.98 -22.36)"/><path class="efed762c-12a7-4d69-b00c-3b05ae8965de" d="M427.12,160a16.44,16.44,0,0,0,4.93,4,13,13,0,0,0,6.06,1.39,9.7,9.7,0,0,0,6.58-2.19,7.13,7.13,0,0,0,2.52-5.64,8.12,8.12,0,0,0-1.6-5.27,13,13,0,0,0-4.42-3.37,67.7,67.7,0,0,0-6.53-2.73,47.08,47.08,0,0,1-4.89-2.07,26.71,26.71,0,0,1-5.14-3.28,16.53,16.53,0,0,1-4-4.89,15.73,15.73,0,0,1,.84-15.33,16.27,16.27,0,0,1,6.62-5.56,21.83,21.83,0,0,1,9.47-2,20.93,20.93,0,0,1,9.1,1.85,21.32,21.32,0,0,1,6.53,4.72,24.7,24.7,0,0,1,4.17,6l-8.09,4.55a18.71,18.71,0,0,0-2.78-4.09,13.36,13.36,0,0,0-3.91-3,11.26,11.26,0,0,0-5.18-1.14c-2.76,0-4.78.64-6.07,1.9a6,6,0,0,0-1.94,4.42,6.59,6.59,0,0,0,1.39,4.09,13.5,13.5,0,0,0,4.34,3.41,56.14,56.14,0,0,0,7.67,3.29,37.14,37.14,0,0,1,5.26,2.35,21.65,21.65,0,0,1,4.85,3.58,16.69,16.69,0,0,1,3.49,5,16.11,16.11,0,0,1,1.31,6.74,16.8,16.8,0,0,1-1.6,7.41,16,16,0,0,1-4.38,5.52A21,21,0,0,1,445.4,173a21.79,21.79,0,0,1-7.29,1.22,22.6,22.6,0,0,1-9.64-2.06,25.23,25.23,0,0,1-7.71-5.52,29,29,0,0,1-5.22-7.5L423,154A37.09,37.09,0,0,0,427.12,160Z" transform="translate(-0.98 -22.36)"/><path class="efed762c-12a7-4d69-b00c-3b05ae8965de" d="M473.75,164.27a5.42,5.42,0,0,0,2.57,2.06,9.76,9.76,0,0,0,3.75.68,11,11,0,0,0,4.92-1.1,8.93,8.93,0,0,0,5-8.25l1.34,5.05a9.12,9.12,0,0,1-2.14,6.19,13.08,13.08,0,0,1-5.39,3.71,18.77,18.77,0,0,1-6.62,1.22,16,16,0,0,1-6.74-1.43,11.73,11.73,0,0,1-5-4.21,11.93,11.93,0,0,1-1.85-6.74,11.12,11.12,0,0,1,4-9q4-3.33,11.2-3.33a23.61,23.61,0,0,1,6.7.84,19.82,19.82,0,0,1,4.68,2,11,11,0,0,1,2.61,2.06v4.64a18.12,18.12,0,0,0-5.56-2.7,22.72,22.72,0,0,0-6.24-.84,12.46,12.46,0,0,0-4.63.72,5.65,5.65,0,0,0-2.65,2,5.29,5.29,0,0,0-.89,3.11A5.86,5.86,0,0,0,473.75,164.27Zm-7.5-26.33a38.47,38.47,0,0,1,6.78-3.11,27.92,27.92,0,0,1,9.56-1.52,23.27,23.27,0,0,1,8.47,1.43,13.43,13.43,0,0,1,5.77,4.09,10.19,10.19,0,0,1,2.11,6.53V173H490V147.13a6.44,6.44,0,0,0-.63-3,5.53,5.53,0,0,0-1.73-1.93,7.35,7.35,0,0,0-2.61-1.1,15.46,15.46,0,0,0-3.29-.34,20.07,20.07,0,0,0-5.1.64,20.39,20.39,0,0,0-4.12,1.51,22.08,22.08,0,0,0-2.57,1.48Z" transform="translate(-0.98 -22.36)"/><path class="efed762c-12a7-4d69-b00c-3b05ae8965de" d="M532.72,142.91q-1.77-2.19-5.48-2.19a9.22,9.22,0,0,0-4.46,1.06,7.43,7.43,0,0,0-3,3,9.33,9.33,0,0,0-1.1,4.59V173h-9.1V134.24h9.1v6a12.66,12.66,0,0,1,4.76-5.14,13.65,13.65,0,0,1,7-1.68q6.57,0,10,4t3.45,11V173h-9.35V149.4Q534.49,145.11,532.72,142.91Z" transform="translate(-0.98 -22.36)"/><path class="efed762c-12a7-4d69-b00c-3b05ae8965de" d="M555.13,142.54a17.91,17.91,0,0,1,7-6.79,19.19,19.19,0,0,1,9.31-2.35,15.28,15.28,0,0,1,8.55,2.4,16.56,16.56,0,0,1,5.81,6.86,27.9,27.9,0,0,1,0,21.48,16.53,16.53,0,0,1-5.81,6.87,15.28,15.28,0,0,1-8.55,2.4,19.2,19.2,0,0,1-9.31-2.36,17.71,17.71,0,0,1-7-6.82,23.84,23.84,0,0,1,0-21.69Zm7.16,33.06a8.94,8.94,0,0,0,1.47,4.72,9.35,9.35,0,0,0,3.84,3.28,12.72,12.72,0,0,0,5.64,1.18,11.92,11.92,0,0,0,5.48-1.34,10.59,10.59,0,0,0,4.25-4.13,14,14,0,0,0,1.64-7.16V134.24h8.93v37.91a21.56,21.56,0,0,1-2.82,11.54,17.84,17.84,0,0,1-7.37,6.78,22,22,0,0,1-9.86,2.23,24.58,24.58,0,0,1-10.78-2.15,16,16,0,0,1-6.87-6,17.84,17.84,0,0,1-2.57-8.93ZM563.55,160a10.63,10.63,0,0,0,4.26,4.08,12.17,12.17,0,0,0,5.77,1.39,11.06,11.06,0,0,0,5.18-1.35,10.69,10.69,0,0,0,4.21-4.08,12.7,12.7,0,0,0,1.64-6.62,13.07,13.07,0,0,0-1-5.26,11.6,11.6,0,0,0-2.57-3.79,10.46,10.46,0,0,0-3.58-2.32,11,11,0,0,0-3.91-.76,12.29,12.29,0,0,0-5.77,1.39,10.66,10.66,0,0,0-4.26,4.09,12.82,12.82,0,0,0-1.6,6.65A12.65,12.65,0,0,0,563.55,160Z" transform="translate(-0.98 -22.36)"/><path class="efed762c-12a7-4d69-b00c-3b05ae8965de" d="M613.84,173h-9V134.24h9ZM623,142.41a6.61,6.61,0,0,0-2.78-.51,5.67,5.67,0,0,0-3.71,1.18,6.53,6.53,0,0,0-2.06,3.25,16.6,16.6,0,0,0-.64,4.84l-3-1.77a18.69,18.69,0,0,1,1.73-8.21A15.58,15.58,0,0,1,617,135.5a9.24,9.24,0,0,1,5.69-2.1,12.26,12.26,0,0,1,4,.63,6.68,6.68,0,0,1,3.12,2.23l-4.38,7.67A11.87,11.87,0,0,0,623,142.41Z" transform="translate(-0.98 -22.36)"/><path class="efed762c-12a7-4d69-b00c-3b05ae8965de" d="M641.18,171.3a17.39,17.39,0,0,1-6.95-7.07,24.33,24.33,0,0,1,0-21.32,17.33,17.33,0,0,1,7-7A21.94,21.94,0,0,1,652,133.4a21.45,21.45,0,0,1,10.44,2.35,16,16,0,0,1,6.61,6.79,22.61,22.61,0,0,1,2.32,10.65c0,.45,0,.93,0,1.43a6.18,6.18,0,0,1-.13,1.1h-34v-6.23h26.28l-2.78,3.87a11.46,11.46,0,0,0,.55-1.39,4.77,4.77,0,0,0,.3-1.47,11.21,11.21,0,0,0-1.23-5.4,8.82,8.82,0,0,0-3.37-3.53,9.62,9.62,0,0,0-5-1.27,11,11,0,0,0-5.9,1.52,9.53,9.53,0,0,0-3.7,4.38,18.59,18.59,0,0,0-1.35,7.08,17.89,17.89,0,0,0,1.26,7.12,9.51,9.51,0,0,0,3.75,4.42,11.39,11.39,0,0,0,6,1.51,13.31,13.31,0,0,0,6.48-1.51,12.22,12.22,0,0,0,4.64-4.64l7.83,3.21a20.17,20.17,0,0,1-7.83,7.83,23.86,23.86,0,0,1-11.55,2.61A20.83,20.83,0,0,1,641.18,171.3Z" transform="translate(-0.98 -22.36)"/><path class="efed762c-12a7-4d69-b00c-3b05ae8965de" d="M713,173H702.72l8.09-61.92,24.17,40,24.27-40L767.33,173H757.06l-4.13-35.89L735,167.51,717,137.1Z" transform="translate(-0.98 -22.36)"/><path class="efed762c-12a7-4d69-b00c-3b05ae8965de" d="M782.92,164.27a5.42,5.42,0,0,0,2.57,2.06,9.76,9.76,0,0,0,3.75.68,11.08,11.08,0,0,0,4.93-1.1,8.94,8.94,0,0,0,5-8.25l1.35,5.05a9.13,9.13,0,0,1-2.15,6.19,13.08,13.08,0,0,1-5.39,3.71,18.77,18.77,0,0,1-6.62,1.22,16,16,0,0,1-6.74-1.43,11.79,11.79,0,0,1-5-4.21,11.93,11.93,0,0,1-1.85-6.74,11.12,11.12,0,0,1,4-9q4-3.33,11.2-3.33a23.61,23.61,0,0,1,6.7.84,19.82,19.82,0,0,1,4.68,2A11,11,0,0,1,802,154v4.64a18.12,18.12,0,0,0-5.56-2.7,22.72,22.72,0,0,0-6.24-.84,12.46,12.46,0,0,0-4.63.72,5.65,5.65,0,0,0-2.65,2,5.29,5.29,0,0,0-.89,3.11A5.86,5.86,0,0,0,782.92,164.27Zm-7.5-26.33a38.47,38.47,0,0,1,6.78-3.11,27.92,27.92,0,0,1,9.56-1.52,23.23,23.23,0,0,1,8.47,1.43,13.43,13.43,0,0,1,5.77,4.09,10.19,10.19,0,0,1,2.11,6.53V173h-8.93V147.13a6.44,6.44,0,0,0-.63-3,5.53,5.53,0,0,0-1.73-1.93,7.35,7.35,0,0,0-2.61-1.1,15.46,15.46,0,0,0-3.29-.34,20.07,20.07,0,0,0-5.1.64,20.39,20.39,0,0,0-4.12,1.51,22.08,22.08,0,0,0-2.57,1.48Z" transform="translate(-0.98 -22.36)"/><path class="efed762c-12a7-4d69-b00c-3b05ae8965de" d="M835.32,134.24v8h-22v-8Zm-6.49-13.48V173h-9V120.76Z" transform="translate(-0.98 -22.36)"/><path class="efed762c-12a7-4d69-b00c-3b05ae8965de" d="M848,171.3a17.27,17.27,0,0,1-7-7.07,24.24,24.24,0,0,1,0-21.32,17.31,17.31,0,0,1,7-7,22,22,0,0,1,10.7-2.48,21.49,21.49,0,0,1,10.45,2.35,16.1,16.1,0,0,1,6.61,6.79,22.73,22.73,0,0,1,2.32,10.65c0,.45,0,.93,0,1.43a7.31,7.31,0,0,1-.13,1.1H844v-6.23h26.29l-2.78,3.87a11.46,11.46,0,0,0,.55-1.39,5,5,0,0,0,.29-1.47,11.33,11.33,0,0,0-1.22-5.4,9,9,0,0,0-3.37-3.53,9.62,9.62,0,0,0-5-1.27,11,11,0,0,0-5.9,1.52,9.55,9.55,0,0,0-3.71,4.38,18.41,18.41,0,0,0-1.34,7.08,17.89,17.89,0,0,0,1.26,7.12,9.4,9.4,0,0,0,3.75,4.42,11.33,11.33,0,0,0,6,1.51,13.38,13.38,0,0,0,6.49-1.51,12.2,12.2,0,0,0,4.63-4.64l7.84,3.21a20.26,20.26,0,0,1-7.84,7.83,23.85,23.85,0,0,1-11.54,2.61A20.83,20.83,0,0,1,848,171.3Z" transform="translate(-0.98 -22.36)"/><path class="efed762c-12a7-4d69-b00c-3b05ae8965de" d="M895.89,173h-9V134.24h9Zm9.18-30.58a6.61,6.61,0,0,0-2.78-.51,5.69,5.69,0,0,0-3.71,1.18,6.6,6.6,0,0,0-2.06,3.25,16.62,16.62,0,0,0-.63,4.84l-3-1.77a18.69,18.69,0,0,1,1.73-8.21,15.5,15.5,0,0,1,4.47-5.69,9.22,9.22,0,0,1,5.68-2.1,12.17,12.17,0,0,1,4,.63,6.58,6.58,0,0,1,3.12,2.23l-4.38,7.67A11.59,11.59,0,0,0,905.07,142.41Z" transform="translate(-0.98 -22.36)"/><path class="efed762c-12a7-4d69-b00c-3b05ae8965de" d="M941.21,142.91c-1.18-1.46-3-2.19-5.48-2.19a9.22,9.22,0,0,0-4.46,1.06,7.49,7.49,0,0,0-3,3,9.33,9.33,0,0,0-1.1,4.59V173H918V134.24h9.1v6a12.66,12.66,0,0,1,4.76-5.14,13.68,13.68,0,0,1,7-1.68q6.57,0,10,4t3.45,11V173H943V149.4Q943,145.11,941.21,142.91Z" transform="translate(-0.98 -22.36)"/><path class="efed762c-12a7-4d69-b00c-3b05ae8965de" d="M970.61,164.27a5.47,5.47,0,0,0,2.57,2.06,9.8,9.8,0,0,0,3.75.68,11,11,0,0,0,4.93-1.1,8.94,8.94,0,0,0,5-8.25l1.35,5.05a9.13,9.13,0,0,1-2.15,6.19,13,13,0,0,1-5.39,3.71,18.73,18.73,0,0,1-6.62,1.22,16,16,0,0,1-6.73-1.43,11.76,11.76,0,0,1-5-4.21,11.93,11.93,0,0,1-1.85-6.74,11.12,11.12,0,0,1,4-9q4-3.33,11.21-3.33a23.58,23.58,0,0,1,6.69.84,19.82,19.82,0,0,1,4.68,2,10.83,10.83,0,0,1,2.61,2.06v4.64a18,18,0,0,0-5.56-2.7,22.64,22.64,0,0,0-6.23-.84,12.51,12.51,0,0,0-4.64.72,5.65,5.65,0,0,0-2.65,2,5.29,5.29,0,0,0-.89,3.11A5.86,5.86,0,0,0,970.61,164.27Zm-7.5-26.33a38.27,38.27,0,0,1,6.79-3.11,27.88,27.88,0,0,1,9.56-1.52,23.22,23.22,0,0,1,8.46,1.43,13.37,13.37,0,0,1,5.77,4.09,10.13,10.13,0,0,1,2.11,6.53V173h-8.93V147.13a6.44,6.44,0,0,0-.63-3,5.44,5.44,0,0,0-1.73-1.93,7.35,7.35,0,0,0-2.61-1.1,15.46,15.46,0,0,0-3.29-.34,20,20,0,0,0-5.09.64,20.5,20.5,0,0,0-4.13,1.51,22.08,22.08,0,0,0-2.57,1.48Z" transform="translate(-0.98 -22.36)"/></g></g></svg>