<svg xmlns="http://www.w3.org/2000/svg" xmlns:xlink="http://www.w3.org/1999/xlink" viewBox="0 0 468.87 468.87"><defs><style>.b1459e01-6e9a-4128-a5df-902df9cd09fd{fill:none;}.ba9c728a-c8c7-462b-a705-c6e1958173ce{clip-path:url(#f9a45ac3-9547-40bf-9eb4-0783e8fe2b08);}.f3becc8a-6ea7-4c95-b680-c24b6e481d5c{fill:#b4dfe9;}.b383714b-8678-4531-ae6d-df62db6d4795{fill:#00517c;}.a9e605c5-180a-474f-b35a-6b48a37f8a2e{fill:#f4a45e;}.e4d27018-4b70-4213-bd0b-460865bd5936{fill:#01638f;}.a2570add-b8a0-4add-86b5-681f557439a1{fill:#c88429;}</style><clipPath id="f9a45ac3-9547-40bf-9eb4-0783e8fe2b08"><circle class="b1459e01-6e9a-4128-a5df-902df9cd09fd" cx="234.44" cy="234.44" r="234.44"/></clipPath></defs><g id="be18a7ff-c08d-46ad-aab1-76d019d4dc8d" data-name="Capa 2"><g id="a18059ee-7d50-4eac-aff7-1d3b74fb0056" data-name="Capa 8"><g class="ba9c728a-c8c7-462b-a705-c6e1958173ce"><circle class="f3becc8a-6ea7-4c95-b680-c24b6e481d5c" cx="234.44" cy="234.44" r="234.44"/><path class="b383714b-8678-4531-ae6d-df62db6d4795" d="M117.84,103.23s7.2-6.61,20.93,5.35l6.38-9.93S129.73,86.46,117.84,103.23Z"/><path class="b383714b-8678-4531-ae6d-df62db6d4795" d="M143,74.25s-8.52,10.58,3.75,22.64l-8.28,8.36S119.47,82,143,74.25Z"/><path class="a9e605c5-180a-474f-b35a-6b48a37f8a2e" d="M108,359.46a72.78,72.78,0,0,1,38.4-29.37l56.23-20.84h53.68l56.21,20.84A72.78,72.78,0,0,1,351,359.46Z"/><path class="e4d27018-4b70-4213-bd0b-460865bd5936" d="M302.81,468.87h86.87c0-14.84-1-36-1-36-5.1-88.83-69.84-102.8-69.84-102.8-50.48-12.22-23,65.86-23,65.86C294.58,414.76,297.38,440.08,302.81,468.87Z"/><rect class="a9e605c5-180a-474f-b35a-6b48a37f8a2e" x="192.65" y="256.53" width="73.69" height="71.85"/><path class="a2570add-b8a0-4add-86b5-681f557439a1" d="M266.34,289.93v-33.4H192.65v16.54C213.67,290.57,239,292.79,266.34,289.93Z"/><path class="b383714b-8678-4531-ae6d-df62db6d4795" d="M344.79,468.87c1.41-38.74,1-49.38.64-62.59-.77-29.44-7.07-54.31-26.47-76.16l-.09,0L266.33,313s11.05,19.34-37.23,19.34c0,0-31.81-1.24-36.45-19.34L139.3,330.09s-45.61,11.22-53.43,59.22l26.81,49.3-1,30.26Z"/><path class="b383714b-8678-4531-ae6d-df62db6d4795" d="M323.61,166.73c2.09-16.53-1.42-32.35-1.25-48.64.12-10.93-2-27.42-15.61-28.81C287.92,87.36,282.11,119.88,281,134c-1.53,19.43,3.29,40.42,7,59.43,1.35,6.86,1.21,20.58,8.94,23.89,6.61,2.84,13.36-3.84,16.74-8.8C321.86,196.5,321.87,180.56,323.61,166.73Z"/><path class="a9e605c5-180a-474f-b35a-6b48a37f8a2e" d="M309.64,246.53c-7.44,29.15-20.56,37.18-20.56,37.18l-17.59,3.43c-10.13-1.28-27.59-5.41-27.59-5.41-40.18-13.66-51.83-17.35-58.06-32.62-.26-.65-31.68-109.7-31.68-109.7-5.14-56.12,53.61-67.8,62.49-69.27,8.77-2,64.71-17.57,81.23,36.31C297.88,106.45,322.29,168.88,309.64,246.53Z"/><path class="b383714b-8678-4531-ae6d-df62db6d4795" d="M328.12,52.14c3.18,17.43.2,41.55-13.3,52.67-14.66,12.08-27.24,8.8-44.89,12.72-18.34,4.07-37.11,5.68-55.55,9.25-12.91,2.5-27.81,3.93-33.76,17.63-7.85,18.1-9.4,41.72-4.11,59.35,4.4,14.69,5.75,29,10.58,48.11C170.42,238.08,157.48,218,157.48,218c-8.3-14.62-8.3-14.62-17.68-40-5.49-14.9-10.24-28-11-43.37-.91-19.82,8.7-28.46,19.28-46.66,9.94-17.11,23.89-28.95,42.09-34.37,0,0,92.22,5.18,90.49-15.89,0,0,22.15,5.66,17.94,20.39,0,0,23.17-4.23,18.25-20.39C316.9,37.63,326.28,42.05,328.12,52.14Z"/><path class="a9e605c5-180a-474f-b35a-6b48a37f8a2e" d="M180.21,200s-9.93-21.65-25.54-8.82c0,0-7.11,5.54,1.64,20,0,0,12.72,20.82,27.95,9.28Z"/><path class="b383714b-8678-4531-ae6d-df62db6d4795" d="M178.66,149.5s.06,38.75,7.18,59.3l-7.55,1.5s-4-26.58-17.65-26.89Z"/><path class="e4d27018-4b70-4213-bd0b-460865bd5936" d="M160.39,468.87H79.19s.28-19.27.33-20.64c.61-19,1.8-38.05,5.22-56.73,4.88-26.7,17.85-50.38,46.39-57.17,13.06-3.1,24.68,4.8,31.75,15.55C162.88,349.88,175.8,365.81,160.39,468.87Z"/></g></g></g></svg>