<svg xmlns="http://www.w3.org/2000/svg" xmlns:xlink="http://www.w3.org/1999/xlink" viewBox="0 0 468.87 468.87"><defs><style>.b3c2577c-7807-4591-87f8-ad9045c4acb6{fill:none;}.b878a2a9-1204-4df0-ad57-309144fdd274{clip-path:url(#a7a97f3e-6ba5-479b-a942-e60f6e01e830);}.ec93199c-74ce-43af-8755-cb2de7bdae27{fill:#b4dfe9;}.f6c4ac1e-6136-46ea-9c43-6ac6e9b6a340{fill:#00517c;}.b70d392b-7dde-42be-a94d-d1020c62651c{fill:#f4a45e;}.b7442b57-8ee2-42f0-982d-0ba11bc88330{fill:#01638f;}.f4bd5f0c-d7ae-4bd4-b9f7-40d8160903d0{fill:#c88429;}.ea9c1a57-3a27-4771-9f35-da5ab4332a05{fill:#0081bb;}</style><clipPath id="a7a97f3e-6ba5-479b-a942-e60f6e01e830"><circle class="b3c2577c-7807-4591-87f8-ad9045c4acb6" cx="234.44" cy="234.44" r="234.44"/></clipPath></defs><g id="a5f5b0b5-c055-45e2-a88e-3127de920b8e" data-name="Capa 2"><g id="b82b27d7-8532-461d-83d6-17bb38a1d7d3" data-name="Capa 16"><g class="b878a2a9-1204-4df0-ad57-309144fdd274"><circle class="ec93199c-74ce-43af-8755-cb2de7bdae27" cx="234.44" cy="234.44" r="234.44"/><path class="f6c4ac1e-6136-46ea-9c43-6ac6e9b6a340" d="M296,71s65.14,39,17.27,268.65c0,0-138-1.26-173.84,15.21,0,0-19.15-217.58-4.15-241.8S265.28,54.09,296,71Z"/><path class="b70d392b-7dde-42be-a94d-d1020c62651c" d="M108,359.46a72.78,72.78,0,0,1,38.4-29.37l56.23-20.84h53.68l56.21,20.84A72.78,72.78,0,0,1,351,359.46Z"/><path class="b7442b57-8ee2-42f0-982d-0ba11bc88330" d="M301.36,468.87h78.08c0-14.84-.87-36-.87-36-4.59-88.83-62.78-102.8-62.78-102.8C270.42,317.87,295.15,396,295.15,396,294,414.76,296.48,440.08,301.36,468.87Z"/><rect class="b70d392b-7dde-42be-a94d-d1020c62651c" x="192.65" y="256.53" width="73.69" height="71.85"/><path class="f4bd5f0c-d7ae-4bd4-b9f7-40d8160903d0" d="M266.34,289.93v-33.4l-73.69-16.67v33.21C213.67,290.57,239,292.79,266.34,289.93Z"/><path class="ea9c1a57-3a27-4771-9f35-da5ab4332a05" d="M328,468.87c.87-26.89,17.76-49.38,17.42-62.59-.77-29.44-7.07-54.31-26.47-76.16l-.09,0L266.33,313s11.05,19.34-37.23,19.34c0,0-31.81-1.24-36.45-19.34L139.3,330.09s-32.61,12.82-40.44,60.83l13.82,47.69-1,30.26Z"/><path class="b70d392b-7dde-42be-a94d-d1020c62651c" d="M292.11,261.5a27.23,27.23,0,0,1-23.77,23.12h0a12.48,12.48,0,0,1-4.9-.4c-16.55-4.81-79.55-34.2-84.85-60.27-.17-.62-21.08-73-24.07-83.31a11.93,11.93,0,0,1-.46-2.51c-4.08-54.27,52.21-66.21,62.2-67.92l.77-.16c9.84-2.33,63.91-16.58,80.56,35.47a12.46,12.46,0,0,1,.44,1.9c4.92,31.28,9.28,51.32,9.12,68.27C306.86,206,293.43,252.54,292.11,261.5Z"/><path class="b70d392b-7dde-42be-a94d-d1020c62651c" d="M180.21,200s-9.93-21.65-25.54-8.82c0,0-7.11,5.54,1.64,20,0,0,12.72,20.82,27.95,9.28Z"/><path class="b7442b57-8ee2-42f0-982d-0ba11bc88330" d="M161,468.87H85.87s.26-19.27.3-20.64c.57-19,1.67-38.05,4.83-56.73,4.52-26.7,16.51-50.38,42.9-57.17,12.08-3.1,22.82,4.8,29.36,15.55C163.26,349.88,175.21,365.81,161,468.87Z"/><path class="f6c4ac1e-6136-46ea-9c43-6ac6e9b6a340" d="M160.58,96.58s51.12,73,7.37,90.51c0,0-19.94-8.23-29.09-4.23S151,100.75,160.58,96.58Z"/><path class="f6c4ac1e-6136-46ea-9c43-6ac6e9b6a340" d="M315.73,131.44S242,96.58,151.94,154.58c0,0-9.16-32.86-9.08-50,.06-11.64,12.58-38.06,42.79-52.57,29.71-14.28,73.93-13.57,105.21,11.71C315.71,83.8,315.73,131.44,315.73,131.44Z"/></g></g></g></svg>