<svg xmlns="http://www.w3.org/2000/svg" xmlns:xlink="http://www.w3.org/1999/xlink" viewBox="0 0 468.87 468.87"><defs><style>.ab0f7137-2fc2-419f-b73b-d6bcc961d0dd{fill:none;}.f4e8a8d5-9ef8-41f6-9ed0-c3d0725cd2c9{clip-path:url(#ba19d0ee-8883-48aa-8a04-183d3bbf3888);}.b5067e58-4d40-4a58-97eb-9c044deccaba{fill:#b4dfe9;}.bd9492fe-a7c4-48cd-bfcf-e0a553929792{fill:#4e3479;}.acdb1874-a374-4df5-8033-ac7d6089a2e9{fill:#f4a45e;}.f530cac4-bed7-4797-b018-6c05be1d0535{fill:#5c3876;}.b42f136f-8702-4585-8030-a29501ef5943{fill:#c88429;}</style><clipPath id="ba19d0ee-8883-48aa-8a04-183d3bbf3888"><circle class="ab0f7137-2fc2-419f-b73b-d6bcc961d0dd" cx="234.44" cy="234.44" r="234.44"/></clipPath></defs><g id="a3063381-f993-4c27-9e3a-01e78051800d" data-name="Capa 2"><g id="b0ec4821-a4bb-49a2-baea-b3bcb954171c" data-name="Capa 8"><g class="f4e8a8d5-9ef8-41f6-9ed0-c3d0725cd2c9"><circle class="b5067e58-4d40-4a58-97eb-9c044deccaba" cx="234.44" cy="234.44" r="234.44"/><path class="bd9492fe-a7c4-48cd-bfcf-e0a553929792" d="M117.84,103.23s7.2-6.61,20.93,5.35l6.38-9.93S129.73,86.46,117.84,103.23Z"/><path class="bd9492fe-a7c4-48cd-bfcf-e0a553929792" d="M143,74.25s-8.52,10.58,3.75,22.64l-8.28,8.36S119.47,82,143,74.25Z"/><path class="acdb1874-a374-4df5-8033-ac7d6089a2e9" d="M108,359.46a72.78,72.78,0,0,1,38.4-29.37l56.23-20.84h53.68l56.21,20.84A72.78,72.78,0,0,1,351,359.46Z"/><path class="f530cac4-bed7-4797-b018-6c05be1d0535" d="M302.81,468.87h86.87c0-14.84-1-36-1-36-5.1-88.83-69.84-102.8-69.84-102.8-50.48-12.22-23,65.86-23,65.86C294.58,414.76,297.38,440.08,302.81,468.87Z"/><rect class="acdb1874-a374-4df5-8033-ac7d6089a2e9" x="192.65" y="256.53" width="73.69" height="71.85"/><path class="b42f136f-8702-4585-8030-a29501ef5943" d="M266.34,289.93v-33.4H192.65v16.54C213.67,290.57,239,292.79,266.34,289.93Z"/><path class="bd9492fe-a7c4-48cd-bfcf-e0a553929792" d="M344.79,468.87c1.41-38.74,1-49.38.64-62.59-.77-29.44-7.07-54.31-26.47-76.16l-.09,0L266.33,313s11.05,19.34-37.23,19.34c0,0-31.81-1.24-36.45-19.34L139.3,330.09s-45.61,11.22-53.43,59.22l26.81,49.3-1,30.26Z"/><path class="bd9492fe-a7c4-48cd-bfcf-e0a553929792" d="M323.61,166.73c2.09-16.53-1.42-32.35-1.25-48.64.12-10.93-2-27.42-15.61-28.81C287.92,87.36,282.11,119.88,281,134c-1.53,19.43,3.29,40.42,7,59.43,1.35,6.86,1.21,20.58,8.94,23.89,6.61,2.84,13.36-3.84,16.74-8.8C321.86,196.5,321.87,180.56,323.61,166.73Z"/><path class="acdb1874-a374-4df5-8033-ac7d6089a2e9" d="M309.64,246.53c-7.44,29.15-20.56,37.18-20.56,37.18l-17.59,3.43c-10.13-1.28-27.59-5.41-27.59-5.41-40.18-13.66-51.83-17.35-58.06-32.62-.26-.65-31.68-109.7-31.68-109.7-5.14-56.12,53.61-67.8,62.49-69.27,8.77-2,64.71-17.57,81.23,36.31C297.88,106.45,322.29,168.88,309.64,246.53Z"/><path class="bd9492fe-a7c4-48cd-bfcf-e0a553929792" d="M328.12,52.14c3.18,17.43.2,41.55-13.3,52.67-14.66,12.08-27.24,8.8-44.89,12.72-18.34,4.07-37.11,5.68-55.55,9.25-12.91,2.5-27.81,3.93-33.76,17.63-7.85,18.1-9.4,41.72-4.11,59.35,4.4,14.69,5.75,29,10.58,48.11C170.42,238.08,157.48,218,157.48,218c-8.3-14.62-8.3-14.62-17.68-40-5.49-14.9-10.24-28-11-43.37-.91-19.82,8.7-28.46,19.28-46.66,9.94-17.11,23.89-28.95,42.09-34.37,0,0,92.22,5.18,90.49-15.89,0,0,22.15,5.66,17.94,20.39,0,0,23.17-4.23,18.25-20.39C316.9,37.63,326.28,42.05,328.12,52.14Z"/><path class="acdb1874-a374-4df5-8033-ac7d6089a2e9" d="M180.21,200s-9.93-21.65-25.54-8.82c0,0-7.11,5.54,1.64,20,0,0,12.72,20.82,27.95,9.28Z"/><path class="bd9492fe-a7c4-48cd-bfcf-e0a553929792" d="M178.66,149.5s.06,38.75,7.18,59.3l-7.55,1.5s-4-26.58-17.65-26.89Z"/><path class="f530cac4-bed7-4797-b018-6c05be1d0535" d="M160.39,468.87H79.19s.28-19.27.33-20.64c.61-19,1.8-38.05,5.22-56.73,4.88-26.7,17.85-50.38,46.39-57.17,13.06-3.1,24.68,4.8,31.75,15.55C162.88,349.88,175.8,365.81,160.39,468.87Z"/></g></g></g></svg>