<svg xmlns="http://www.w3.org/2000/svg" viewBox="0 0 30.72 39.84"><defs><style>.fc667d83-c692-40c6-8d4e-41f3a46f1df1{fill:#00517c;}.a94be141-0866-4eb5-a384-c039cc8c5115{fill:#fff;}</style></defs><g id="e2aaae38-d64f-4c14-bdda-c3f7423f65e8" data-name="Capa 2"><g id="f258123e-70d0-4733-8a0f-a0d36953fb4f" data-name="Capa 12"><path class="fc667d83-c692-40c6-8d4e-41f3a46f1df1" d="M30.72,15.36A15.36,15.36,0,1,0,4,25.64H4l11.4,14.19L26.67,25.75h0A15.29,15.29,0,0,0,30.72,15.36Z"/><path class="a94be141-0866-4eb5-a384-c039cc8c5115" d="M5.62,11.66V9.09h5.72v2.57Zm3,12.73V9.09h2.94v15.3Z"/><path class="a94be141-0866-4eb5-a384-c039cc8c5115" d="M18.53,24.63a7,7,0,0,1-2.83-.55,5.61,5.61,0,0,1-2.16-1.62l2-1.94a3.12,3.12,0,0,0,1.24,1,4,4,0,0,0,1.74.4A3.36,3.36,0,0,0,20,21.64a2.41,2.41,0,0,0,1-.89,2.62,2.62,0,0,0,.34-1.36A2.39,2.39,0,0,0,21,18.05a2.46,2.46,0,0,0-1-.87,3.74,3.74,0,0,0-1.62-.32,4.89,4.89,0,0,0-.83.07,4.06,4.06,0,0,0-.74.17l1.31-1.7a10.72,10.72,0,0,1,1.08-.28,5.08,5.08,0,0,1,1-.11,4.12,4.12,0,0,1,2.12.56,4,4,0,0,1,1.5,1.56,5,5,0,0,1,.56,2.41,4.84,4.84,0,0,1-.73,2.64,5,5,0,0,1-2,1.8A6.5,6.5,0,0,1,18.53,24.63Zm-4.14-13V9.09h9.69v1.7l-2.44.87Zm2.35,5.44V15.38l3.92-4.55,3.42,0L20,15.45Z"/></g></g></svg>