<svg xmlns="http://www.w3.org/2000/svg" viewBox="0 0 30.72 39.84"><defs><style>.e97e8cdb-43f1-4e3c-9ae4-4f970fb996b1{fill:#00517c;}.a5b457d7-9985-4f16-92ea-e682ae6f07d3{fill:#fff;}</style></defs><g id="e8a6bf69-0a1d-48a4-9f18-0f7ce9d31c1c" data-name="Capa 2"><g id="b5124156-ed19-4016-8a6f-1994c138397b" data-name="Capa 12"><path class="e97e8cdb-43f1-4e3c-9ae4-4f970fb996b1" d="M30.72,15.36A15.36,15.36,0,1,0,4,25.64H4l11.4,14.19L26.67,25.75h0A15.29,15.29,0,0,0,30.72,15.36Z"/><path class="a5b457d7-9985-4f16-92ea-e682ae6f07d3" d="M5.62,11.66V9.09h5.72v2.57Zm3,12.73V9.09h2.94v15.3Z"/><path class="a5b457d7-9985-4f16-92ea-e682ae6f07d3" d="M19.16,24.63a6.45,6.45,0,0,1-2.82-.57,4.62,4.62,0,0,1-1.86-1.6,4.12,4.12,0,0,1-.68-2.31,4.41,4.41,0,0,1,.42-1.94,3.83,3.83,0,0,1,1.19-1.46,5.31,5.31,0,0,1,1.83-.85l-.08.72a3.33,3.33,0,0,1-1.47-.76,3.59,3.59,0,0,1-.92-1.29A4.08,4.08,0,0,1,14.46,13a3.84,3.84,0,0,1,.61-2.16,4.24,4.24,0,0,1,1.66-1.47,5.43,5.43,0,0,1,2.43-.53,5.35,5.35,0,0,1,2.42.53,4.25,4.25,0,0,1,1.64,1.47,3.92,3.92,0,0,1,.6,2.16,4.08,4.08,0,0,1-.31,1.58,3.42,3.42,0,0,1-.9,1.29,3.33,3.33,0,0,1-1.47.76l-.09-.72a5,5,0,0,1,1.84.85,3.92,3.92,0,0,1,1.19,1.46,4.41,4.41,0,0,1,.41,1.94,4.18,4.18,0,0,1-.66,2.31A4.5,4.5,0,0,1,22,24.06,6.5,6.5,0,0,1,19.16,24.63Zm0-2.61a2.78,2.78,0,0,0,1.26-.29,2.23,2.23,0,0,0,1.22-2,2,2,0,0,0-.33-1.15,2.41,2.41,0,0,0-.89-.81,2.66,2.66,0,0,0-1.26-.3,2.71,2.71,0,0,0-1.3.3,2.55,2.55,0,0,0-.88.81,2.11,2.11,0,0,0-.32,1.15,2.29,2.29,0,0,0,.32,1.2,2.34,2.34,0,0,0,.89.82A2.85,2.85,0,0,0,19.16,22Zm0-6.79a1.9,1.9,0,0,0,1.94-1.94,1.88,1.88,0,0,0-.55-1.41,1.85,1.85,0,0,0-1.39-.55,1.92,1.92,0,0,0-1.4.54,1.84,1.84,0,0,0-.56,1.4,1.9,1.9,0,0,0,.56,1.39A1.86,1.86,0,0,0,19.16,15.23Z"/></g></g></svg>