<svg xmlns="http://www.w3.org/2000/svg" viewBox="0 0 30.72 39.84"><defs><style>.b573597b-b2f7-45d9-8602-269caaaaaf9e{fill:#00517c;}.f1c813cd-2772-47ff-83e6-9cf482da6e54{fill:#fff;}</style></defs><g id="a8561189-5bc7-4808-9a49-1dc65093564c" data-name="Capa 2"><g id="fabc9ec5-b688-46f8-bdfb-4a7aefb3693d" data-name="Capa 12"><path class="b573597b-b2f7-45d9-8602-269caaaaaf9e" d="M30.72,15.36A15.36,15.36,0,1,0,4,25.64H4l11.4,14.19L26.67,25.75h0A15.29,15.29,0,0,0,30.72,15.36Z"/><path class="f1c813cd-2772-47ff-83e6-9cf482da6e54" d="M5.68,22.7l5.75-6a14.1,14.1,0,0,0,1-1.18,4,4,0,0,0,.56-1,2.71,2.71,0,0,0,.16-.95,1.92,1.92,0,0,0-.61-1.5A2.29,2.29,0,0,0,11,11.53a3,3,0,0,0-1.77.52A5.1,5.1,0,0,0,7.73,13.7L5.71,12A6.19,6.19,0,0,1,8,9.64a6.1,6.1,0,0,1,3.14-.79,5.59,5.59,0,0,1,2.64.58,4.14,4.14,0,0,1,1.72,1.62,4.85,4.85,0,0,1,.61,2.46,6,6,0,0,1-.23,1.7,5,5,0,0,1-.77,1.51,17.1,17.1,0,0,1-1.46,1.69l-4.2,4.26Zm0,1.69V22.7l2.53-.87h8.18v2.56Z"/><path class="f1c813cd-2772-47ff-83e6-9cf482da6e54" d="M17.66,11.66V9.09h5.72v2.57Zm3,12.73V9.09H23.6v15.3Z"/></g></g></svg>