<svg xmlns="http://www.w3.org/2000/svg" viewBox="0 0 488.5 125.08"><defs><style>.b13ad13f-776e-4e60-9050-e697d2d3bcec,.be968056-cb69-4dfb-8cb1-f444296da37c,.ecf74796-1e5c-423a-a6bc-b7aa6f42f804,.faffc654-a092-4a38-8015-343d0da7d045{fill:#fff;}.be968056-cb69-4dfb-8cb1-f444296da37c,.ecf74796-1e5c-423a-a6bc-b7aa6f42f804{fill-rule:evenodd;}.b13ad13f-776e-4e60-9050-e697d2d3bcec,.ecf74796-1e5c-423a-a6bc-b7aa6f42f804{stroke:#fff;stroke-miterlimit:22.93;}.ecf74796-1e5c-423a-a6bc-b7aa6f42f804{stroke-width:1.65px;}.b13ad13f-776e-4e60-9050-e697d2d3bcec{stroke-width:0.75px;}</style></defs><g id="ed713b8d-368c-48af-addf-1259ef2f3704" data-name="Capa 2"><g id="e8856922-50a7-426d-af25-7a6846c63907" data-name="Capa 2"><path class="be968056-cb69-4dfb-8cb1-f444296da37c" d="M146.62,38.47l-.57,0h-1.14l-.53,0a11.54,11.54,0,0,1,.41,3.8l0,3.61a8.82,8.82,0,0,1-.43,3.64,3.1,3.1,0,0,1-1.26,1.36,5.21,5.21,0,0,1-2.6.63,3.84,3.84,0,0,1-3.66-1.93,7,7,0,0,1-.41-3.17v-.33l0-4c0-1.17,0-1.89,0-2.15s.06-.82.14-1.49l-.65,0h-1.89l-.51,0-.39.85h.21c.59,0,.89.2,1,.62a8.94,8.94,0,0,1,.17,2.09l0,3.67,0,1.51c0,2,.3,3.13,1.14,4a4.32,4.32,0,0,0,1.64,1,7.62,7.62,0,0,0,3,.54,7.07,7.07,0,0,0,4-1,4.63,4.63,0,0,0,2-3.84c0-.52.07-1.1.07-1.71l0-4a22.3,22.3,0,0,1,.26-3.8Zm17.79,0-.59,0h-1.25l-.48,0a17.31,17.31,0,0,1,.5,4.74l0,4.74.07,1.43L161.5,48l-5.4-6.85a19.49,19.49,0,0,1-1.81-2.65l-1,0h-1.89l-.51,0-.39.85h.2c.59,0,.9.2,1,.62a10.54,10.54,0,0,1,.14,2.13l0,6.3V50.1a11.34,11.34,0,0,1-.12,1.45c0,.2-.06.5-.14.9l.59,0h1.16l.53,0a13.78,13.78,0,0,1-.47-4.06l0-6.7,0-1L155,42.75l6,7.49c.67.84,1,1.29,1.77,2.45l.83,0h.77c-.1-1.12-.12-1.51-.18-2.55,0-.5,0-.9,0-1.22l0-5.67c0-1.2,0-2,0-2.41a11.67,11.67,0,0,1,.1-1.46,7.7,7.7,0,0,1,.15-.89Zm7.63,14a12.07,12.07,0,0,1-.41-3.8l0-6.56c0-1.11,0-1.83,0-2.15s.06-.82.12-1.49l-.63,0h-1.89l-.51,0-.38.85h.2c.59,0,.9.2,1,.62a10.08,10.08,0,0,1,.14,2.09l0,6.6a16,16,0,0,1-.14,2.92c0,.2-.06.5-.13.9l.57,0h1.49l.53,0Zm16.62-13.92-.06-.08-.59,0h-1.52l-.65,0a2.19,2.19,0,0,1,.14.81,9.27,9.27,0,0,1-.82,3.13L183,48.07l-1,2.39-.71-2.21-2.24-6.44a17.33,17.33,0,0,1-.77-2.53c0-.18-.06-.46-.1-.83l-.72,0h-1.6l-.51,0-.39.85h.21c.52,0,.75.18,1,.74s.51,1.17.8,1.91l3.29,8.85a8.24,8.24,0,0,1,.53,1.93l.51,0h.89l.43,0a11.14,11.14,0,0,1,.9-2.69L187,41.89l.57-1.25.55-1.14.55-1Zm11.81,11.85-.27-.12a3,3,0,0,1-1,.68,3.18,3.18,0,0,1-.82.24,9.59,9.59,0,0,1-1.89.14c-1.18,0-1.65-.1-2-.42s-.33-.56-.37-1.28c0-.38,0-.68,0-.93v-3c.81,0,1.14,0,1.69,0s1.3,0,2,.06c.21,0,.51,0,.92.06l0-.42,0-.62.06-.42c-1,.08-1.34.12-2.2.12h-2.42V42l.08-2.45c.61,0,1.16-.06,1.49-.06a7.18,7.18,0,0,1,2,.24,1.9,1.9,0,0,1,1,.67l.24,0,.14-.5.27-.83.26-.65c-1.36,0-1.58.06-3.88.06h-2.83l-1.65,0-.38.85h.2c.59,0,.89.2,1,.63a10.13,10.13,0,0,1,.14,2.1l0,6.6a16.19,16.19,0,0,1-.14,2.92c0,.2-.07.5-.13.9l2,0,2.72,0,2.46,0,.8,0,.14-.72.18-.79.19-.64Zm15.24,1.93a6.6,6.6,0,0,1-.88-.74,20.07,20.07,0,0,1-2.27-2.94l-2.06-3L210,45a7.05,7.05,0,0,0,2-1.35,3.14,3.14,0,0,0,.81-2.18,3,3,0,0,0-1-2.37c-.69-.54-1.32-.71-3.05-.71-.45,0-.91,0-1.44,0l-1.94.06-1.62,0-.39.85h.2c.59,0,.9.2,1,.62A10.08,10.08,0,0,1,204.7,42l0,6.6a19.27,19.27,0,0,1-.26,3.82l.57,0h1.48l.53,0a12.38,12.38,0,0,1-.41-3.8l0-6.56c0-1.53,0-1.73.07-2.57a9.82,9.82,0,0,1,1.44-.12,2.41,2.41,0,0,1,2.73,2.49,2.53,2.53,0,0,1-1.57,2.49,4.67,4.67,0,0,1-1.85.26l-.08.48-.12.5h.2c.55,0,.89.24,1.54,1.13A43,43,0,0,1,211.82,51c.19.31.33.57.43.77s.22.4.26.46a3,3,0,0,1,.25.36l.85-.06,1.55,0,.53,0,0-.14Zm10.52-3.9a3.54,3.54,0,0,0-.73-2.21,7.41,7.41,0,0,0-2.73-1.92,12,12,0,0,1-2.28-1.43,2.05,2.05,0,0,1-.69-1.54,2.21,2.21,0,0,1,2.5-2.15A2.94,2.94,0,0,1,225,40.5l.26,0,.11-.42.3-.94.22-.57a8,8,0,0,0-2.25-.5c-.25,0-.49,0-.74,0-2.88,0-4.8,1.61-4.8,4a3.44,3.44,0,0,0,1,2.41,9.15,9.15,0,0,0,2.66,1.7,6.88,6.88,0,0,1,2.22,1.59,2.37,2.37,0,0,1,.53,1.53,2.65,2.65,0,0,1-2.87,2.51,3.41,3.41,0,0,1-1.83-.55,2.68,2.68,0,0,1-.93-1l-.29.06-.12.5-.25.93-.22.7a7.35,7.35,0,0,0,2.22.52c.28,0,.55,0,.79,0,3.09,0,5.29-1.89,5.29-4.5Zm6.84,4a12.38,12.38,0,0,1-.41-3.8l0-6.56c0-1.11,0-1.83,0-2.15s.07-.82.13-1.49l-.63,0h-1.9l-.5,0-.39.85h.2c.59,0,.9.2,1,.62a10.08,10.08,0,0,1,.14,2.09l0,6.6a16,16,0,0,1-.14,2.92q0,.3-.12.9l.57,0h1.48l.53,0Zm18.21-7.6a6.14,6.14,0,0,0-3-5.66,7.85,7.85,0,0,0-3.58-.7c-.51,0-1.12,0-1.83,0l-3,0H238l-.51,0-.39.84h.21c.59,0,.89.21,1,.63A10,10,0,0,1,238.4,42l0,6.6a15.92,15.92,0,0,1-.14,2.91q0,.3-.12.9l.57,0h1.48c1.22,0,2.06.06,2.55.06a8.69,8.69,0,0,0,5.82-1.68,7.38,7.38,0,0,0,2.74-5.92Zm-2.15.5c0,3.71-2.26,5.94-6,5.94a8.23,8.23,0,0,1-1.93-.19,1.23,1.23,0,0,1-.51-.29,1.88,1.88,0,0,1-.36-1.29c0-.34,0-.66,0-.92l0-6.52.06-2.42c1.28-.06,1.93-.1,2.58-.1,2.46,0,3.72.42,4.74,1.54a6.3,6.3,0,0,1,1.43,4.25ZM267,52.43c-.22-.36-.3-.5-.49-.86A26.82,26.82,0,0,1,265.3,49l-3.37-8.85a12.34,12.34,0,0,1-.64-2.05l-.44.08-.9.14-.42.06a14.69,14.69,0,0,1-.86,2.51L255.29,49c-.12.3-.3.72-.55,1.24s-.42.88-.57,1.14-.26.5-.48.9l.08.12.55,0h1.4l.63,0a2.85,2.85,0,0,1-.14-.92A7.68,7.68,0,0,1,256.8,49l.69-1.82,1.42,0h2.43l1.24,0,.69,2a16.24,16.24,0,0,1,.73,2.42c0,.18.08.46.14.84l.9-.06h1.3l.63,0ZM262.15,46l-1.06,0h-2l-1.2,0,2.22-5.76,2,5.76Zm21.43-1.19a6.13,6.13,0,0,0-3-5.66,7.85,7.85,0,0,0-3.58-.7c-.5,0-1.11,0-1.83,0l-3,0h-1.89l-.51,0-.38.84h.2c.59,0,.89.21,1,.63A10,10,0,0,1,270.7,42l0,6.6a15.92,15.92,0,0,1-.14,2.91c0,.2-.07.5-.13.9l.57,0h1.49c1.22,0,2,.06,2.54.06a8.69,8.69,0,0,0,5.82-1.68,7.39,7.39,0,0,0,2.75-5.92Zm-2.16.5c0,3.71-2.26,5.94-6,5.94a8.17,8.17,0,0,1-1.93-.19,1.12,1.12,0,0,1-.51-.29c-.25-.27-.33-.57-.37-1.29,0-.34,0-.66,0-.92l0-6.52.06-2.42c1.28-.06,1.93-.1,2.59-.1,2.46,0,3.72.42,4.73,1.54A6.3,6.3,0,0,1,281.42,45.35Z"/><path class="ecf74796-1e5c-423a-a6bc-b7aa6f42f804" d="M151.46,89a6,6,0,0,1-2.36,4.92,9.18,9.18,0,0,1-5.93,1.89A12.61,12.61,0,0,1,136,93.68L137.48,91a9.37,9.37,0,0,0,5.57,1.84,5.76,5.76,0,0,0,3.19-.84,3,3,0,0,0,1.57-2.69c0-1.49-.94-2.86-2.84-4.11L139.71,82a6.85,6.85,0,0,1-2.84-5.57,6,6,0,0,1,2-4.64,8,8,0,0,1,5.57-1.85,12.52,12.52,0,0,1,5.84,1.27l0,3.38a10.28,10.28,0,0,0-5.64-1.73,5.41,5.41,0,0,0-3,.77A2.76,2.76,0,0,0,140.32,76c0,1.43,1,2.77,2.89,4l5.37,3.35A7,7,0,0,1,151.46,89Zm30.65-2.37a8.77,8.77,0,0,1-2.73,6.92c-1.71,1.51-4.11,2.26-7.18,2.26s-5.49-.79-7.11-2.36-2.42-4-2.42-7.2V70.09h3.46V86.15A7.09,7.09,0,0,0,167.7,91a5.79,5.79,0,0,0,4.58,1.77,6.49,6.49,0,0,0,4.88-1.66,6.71,6.71,0,0,0,1.49-4.76V70.09h3.46V86.61Zm28.46,8.8h-4l-4.75-7.61q-1.8-2.73-2.49-2.88h-2.53V95.41h-3.45V70.09h5.76q4.38,0,6.6,2a6.34,6.34,0,0,1,2,4.92,6.75,6.75,0,0,1-1.46,4.34,8,8,0,0,1-3.38,2.42v0c.39.2,1.28,1.38,2.69,3.53q.77,1.16,5,8Zm-6.45-18q0-4.31-4.93-4.3h-2.37v9h2.49a4.74,4.74,0,0,0,3.42-1.36,4.47,4.47,0,0,0,1.39-3.29Zm31.79,16.33a15,15,0,0,1-7.49,2,11.81,11.81,0,0,1-9.06-3.65,12.78,12.78,0,0,1-3.27-9.1,13,13,0,0,1,3.63-9.37,12.42,12.42,0,0,1,9.35-3.77,12.69,12.69,0,0,1,6.5,1.46l0,3.38A12,12,0,0,0,229,72.82a8.71,8.71,0,0,0-6.8,2.89,11.53,11.53,0,0,0,0,14.24,8.42,8.42,0,0,0,6.64,2.77,12.62,12.62,0,0,0,6-1.61l1,2.65Zm7.88-10.84a13,13,0,0,1,3.53-9.31,13.19,13.19,0,0,1,18.59.25,13,13,0,0,1,3.19,9,12.75,12.75,0,0,1-3.72,9.52,13.49,13.49,0,0,1-17.64.27,12.6,12.6,0,0,1-4-9.72Zm21.62,0a10.35,10.35,0,0,0-2.34-7.11A8.31,8.31,0,0,0,256.43,73a8.43,8.43,0,0,0-6.55,2.67,10.33,10.33,0,0,0-2.44,7.25,10.33,10.33,0,0,0,2.44,7.22,9.31,9.31,0,0,0,13.09,0,10.33,10.33,0,0,0,2.44-7.22ZM290,95.41H277.2V70.09h3.46V92.37H290v3Zm7.06-12.49a13,13,0,0,1,3.53-9.31,13.2,13.2,0,0,1,18.6.25,13,13,0,0,1,3.19,9,12.75,12.75,0,0,1-3.73,9.52,13.48,13.48,0,0,1-17.63.27,12.57,12.57,0,0,1-4-9.72Zm21.63,0a10.3,10.3,0,0,0-2.35-7.11A8.3,8.3,0,0,0,309.73,73a8.44,8.44,0,0,0-6.55,2.67,10.33,10.33,0,0,0-2.44,7.25,10.33,10.33,0,0,0,2.44,7.22,9.32,9.32,0,0,0,13.1,0,10.38,10.38,0,0,0,2.44-7.22Zm37.74,12.52h-3.34V75.51h0a17.82,17.82,0,0,1-1.42,2.54l-6.26,10h-2l-6.68-10a27.4,27.4,0,0,1-1.38-2.5h-.08a16.5,16.5,0,0,1,.19,2.65V95.41H332V70.09h3.38l7.65,11.41a19.61,19.61,0,0,1,1.39,2.38h.08a18.58,18.58,0,0,1,1.31-2.41l7.22-11.38h3.4V95.41Zm27-7.49a7.06,7.06,0,0,1-2,5.07q-2.34,2.42-6.95,2.42h-6.88V70.09H375a6.78,6.78,0,0,1,5.19,2,5.84,5.84,0,0,1,1.65,4.19,5.43,5.43,0,0,1-3.38,5.49v0a5.72,5.72,0,0,1,3.42,2,6.1,6.1,0,0,1,1.54,4.11ZM374,73.13h-2.87V81h3.05a4.24,4.24,0,0,0,2.89-1.1,3.75,3.75,0,0,0,1.24-2.94q0-3.8-4.31-3.8ZM379.76,88a3.59,3.59,0,0,0-1.36-2.88A5.58,5.58,0,0,0,374.75,84h-3.67v8.37h3.48a5.56,5.56,0,0,0,3.84-1.21A4,4,0,0,0,379.76,88Zm16.66,7.42H393V70.09h3.46V95.41Zm28.81,0h-3.67L419,88.8h-9.77l-2.4,6.61h-3.37L413.16,70h2.19l9.88,25.43Zm-7.38-9.53-2.67-7.67a24.08,24.08,0,0,1-1-3.16h0c-.21.79-.55,1.82-1,3.1l-2.79,7.73Zm37.49,9.53h-3.17L439.79,79.08a37.39,37.39,0,0,1-2.62-3.76h-.07a28.15,28.15,0,0,1,.15,3.15V95.41h-3.46V70.09h3.5L449.16,85.8a32.7,32.7,0,0,1,2.73,4h0c0-1,0-2.15,0-3.31l0-16.44h3.45V95.41Zm32,0h-3.66l-2.57-6.61h-9.77l-2.4,6.61h-3.38L475.23,70h2.19l9.87,25.43Zm-7.37-9.53-2.67-7.67a24.08,24.08,0,0,1-1-3.16h0c-.2.79-.54,1.82-1,3.1l-2.79,7.73Z"/><path class="faffc654-a092-4a38-8015-343d0da7d045" d="M111.72,8.61H87.43c-12-11.48-45.7-11.48-57.68,0H5.46A5.48,5.48,0,0,0,0,14.08v8.15a5.26,5.26,0,0,0,.63,2.55,10.55,10.55,0,0,0,5.15,4.34v73.66a5.31,5.31,0,0,0,.66,2.62c4.59,8.47,14.59,13,23.41,15.5a116.2,116.2,0,0,0,28.66,4.18h.16a116.2,116.2,0,0,0,28.66-4.18c8.82-2.53,18.82-7,23.41-15.5a5.31,5.31,0,0,0,.66-2.62V29.12a10.55,10.55,0,0,0,5.15-4.34,5.26,5.26,0,0,0,.63-2.55V14.08A5.48,5.48,0,0,0,111.72,8.61ZM35.9,15a3,3,0,0,1-1.06-2.69c.14-6,21.1-6.23,23.49-6.23h.52c2.39,0,23.35.24,23.49,6.23A3,3,0,0,1,81.27,15a2.64,2.64,0,0,1-.77.38v9.29a3.35,3.35,0,0,1,2.39.18c.63.36,1.32,1.21,1,3.17a17.79,17.79,0,0,1-3.46,7.51c.85,2.2,4.91,12.72,4.78,14.77,0,.36,0,.87,0,1.48,0,3.18,0,8.49-2.53,11V89.26a4.45,4.45,0,0,1,1.4,2.8,1.68,1.68,0,0,1-.39,1.32c-3.6,3.27-15.27,4.66-25,4.88H57.31c-10.9,0-21.23-2.81-23.76-4.87a1.52,1.52,0,0,1-.42-1.25,4.27,4.27,0,0,1,1.41-2.89V62.71C32,60.26,32,54.94,32,51.76c0-.61,0-1.12,0-1.48-.13-2.05,3.92-12.57,4.78-14.77A17.9,17.9,0,0,1,33.3,28c-.33-2,.37-2.81,1-3.18a3.35,3.35,0,0,1,2.37-.21V15.36A2.69,2.69,0,0,1,35.9,15Zm75.82,7.25c-.94,1.81-5.78,3-5.78,3v77.56c-8.8,16.26-47.35,16.83-47.35,16.83S20,119,11.23,102.78V25.22S6.4,24,5.46,22.23V14.08H34.11v8.07s-2.4,2.69-5.38,3v70s10.2,8.46,29.52,8.37h.67c19.32.09,29.53-8.37,29.53-8.37v-70c-3-.3-5.38-3-5.38-3V14.09h28.65Z"/><path class="faffc654-a092-4a38-8015-343d0da7d045" d="M67,38.05a4.48,4.48,0,0,0,1.86-.95s0-.24-.27-.54a1.93,1.93,0,0,0-1.24-.74,4.35,4.35,0,0,1-1.6.54A3.12,3.12,0,0,1,67,38.05Z"/><path class="faffc654-a092-4a38-8015-343d0da7d045" d="M67.82,23a8.7,8.7,0,0,1-.74.59A6.82,6.82,0,0,0,71.44,26c2.57.41,3.67-1.49,4.2-2.4l.09-.16C75,22.66,72,20.77,69,22.12A5.63,5.63,0,0,0,67.82,23Z"/><path class="faffc654-a092-4a38-8015-343d0da7d045" d="M60.61,43.7a27.78,27.78,0,0,0,18.67-8.45A29.7,29.7,0,0,1,79.06,30a.6.6,0,0,1-.06-.19,11.27,11.27,0,0,0-2.53-5.6,5,5,0,0,1-4.31,2.88,5.65,5.65,0,0,1-.89-.08A7.82,7.82,0,0,1,66.2,24.1l-.1,0c-.66.38-1.32.71-1.95,1,3.47,3.9,3.47,4.36,3.47,4.56,0,1-3.85,3.83-8.68,4.36h-.11c-4.62-.5-9.27-3.31-9.27-4.36,0-.2,0-.66,3.48-4.56h0a20.15,20.15,0,0,1-2-1l-.11,0A7.76,7.76,0,0,1,45.91,27a5.76,5.76,0,0,1-.89.08,5,5,0,0,1-4.31-2.88,12.06,12.06,0,0,0-2.64,5.52,30.43,30.43,0,0,1-.2,5.52,27.17,27.17,0,0,0,15.54,8.15A18.18,18.18,0,0,1,60.61,43.7ZM47.39,37.58c-.34-.62,0-1.48.9-2.17s1.7-.8,2.19-.36,4.21.85,7.56,1.18h1.12c3.3-.33,7.06-.87,7.55-1.2s1.33-.28,2.17.38,1.25,1.55.91,2.17c-.6,1.13-4.91,2.65-10.61,2.65h-.83C52.46,40.28,48,38.73,47.39,37.58Z"/><path class="faffc654-a092-4a38-8015-343d0da7d045" d="M59,27h-.09a.48.48,0,0,1-.12,0h0a31.13,31.13,0,0,1-4.82-1.49.5.5,0,0,1-.13.32,47.72,47.72,0,0,0-3.15,3.83A16.28,16.28,0,0,0,58.88,33a13.34,13.34,0,0,0,7.66-3.36,47.19,47.19,0,0,0-3.17-3.85.49.49,0,0,1-.11-.28A32.59,32.59,0,0,1,59,27Z"/><path class="faffc654-a092-4a38-8015-343d0da7d045" d="M49.33,68.16c-.35-.32-.7-.63-1-1C48.63,67.53,49,67.84,49.33,68.16Z"/><path class="faffc654-a092-4a38-8015-343d0da7d045" d="M50.55,69.21c-.34-.28-.66-.56-1-.85C49.89,68.65,50.21,68.93,50.55,69.21Z"/><path class="faffc654-a092-4a38-8015-343d0da7d045" d="M51.8,70.23l-1.15-.94Z"/><path class="faffc654-a092-4a38-8015-343d0da7d045" d="M46.23,65c-.24-.3-.47-.6-.68-.91C45.76,64.41,46,64.71,46.23,65Z"/><path class="faffc654-a092-4a38-8015-343d0da7d045" d="M44.78,62.88a10.33,10.33,0,0,0,.6,1,10.33,10.33,0,0,1-.6-1Z"/><path class="faffc654-a092-4a38-8015-343d0da7d045" d="M52,70.38l1.13.89h0Z"/><path class="faffc654-a092-4a38-8015-343d0da7d045" d="M47.13,66c-.3-.32-.59-.64-.85-1C46.54,65.39,46.83,65.71,47.13,66Z"/><path class="faffc654-a092-4a38-8015-343d0da7d045" d="M48.21,67.12c-.3-.28-.58-.57-.86-.86C47.63,66.55,47.91,66.84,48.21,67.12Z"/><path class="faffc654-a092-4a38-8015-343d0da7d045" d="M41.17,62.88h-5.6v8.39H47.79C45.12,69,42.32,66.14,41.17,62.88Z"/><path class="faffc654-a092-4a38-8015-343d0da7d045" d="M69.37,72.3c.21.25.41.51.61.78C69.78,72.81,69.58,72.55,69.37,72.3Z"/><path class="faffc654-a092-4a38-8015-343d0da7d045" d="M81.61,73.91V72.3H73.72a13.53,13.53,0,0,1,.82,1.61Z"/><path class="faffc654-a092-4a38-8015-343d0da7d045" d="M70,73.08c.19.27.38.55.55.83C70.36,73.63,70.17,73.35,70,73.08Z"/><path class="faffc654-a092-4a38-8015-343d0da7d045" d="M49,72.3H35.57v1.61H51.05c-.59-.45-1.06-.82-1.34-1Z"/><polygon class="faffc654-a092-4a38-8015-343d0da7d045" points="56.45 73.91 56.46 73.91 56.46 73.91 56.45 73.91"/><path class="faffc654-a092-4a38-8015-343d0da7d045" d="M44.05,61a7.54,7.54,0,0,0,.27.89h0A7.54,7.54,0,0,1,44.05,61Z"/><path class="faffc654-a092-4a38-8015-343d0da7d045" d="M44,60.83a4.94,4.94,0,0,1-.12-.93A4.94,4.94,0,0,0,44,60.83Z"/><path class="faffc654-a092-4a38-8015-343d0da7d045" d="M79.37,36.81a.54.54,0,0,1,.32-.31l0-.14a27.87,27.87,0,0,1-12.73,7.36H76.4A53.31,53.31,0,0,0,79.37,36.81Z"/><path class="faffc654-a092-4a38-8015-343d0da7d045" d="M43.78,48.91c-2.85-2.69-5.71-9.2-6.65-11.48-1.91,5-4.2,11.49-4.12,12.78,0,.38,0,.91,0,1.55,0,2.77,0,7.87,2.1,10.09h5.72A9.68,9.68,0,0,1,40.61,60,17.79,17.79,0,0,1,43.78,48.91Z"/><path class="faffc654-a092-4a38-8015-343d0da7d045" d="M51,43.9a28,28,0,0,1-13-7.13c.79,1.92,3.72,8.74,6.45,11.34.09-.11.17-.22.26-.32A13.93,13.93,0,0,1,51,43.9Z"/><polygon class="faffc654-a092-4a38-8015-343d0da7d045" points="57.33 74.62 57.33 74.62 57.33 74.62 57.33 74.62"/><path class="faffc654-a092-4a38-8015-343d0da7d045" d="M35.57,74.94V88.53c1-.4,3.07-.24,5.32.16V74.94Z"/><path class="faffc654-a092-4a38-8015-343d0da7d045" d="M61.19,79.12a.83.83,0,0,0,0-.15A.83.83,0,0,1,61.19,79.12Z"/><path class="faffc654-a092-4a38-8015-343d0da7d045" d="M59,76.13l.11.1Z"/><path class="faffc654-a092-4a38-8015-343d0da7d045" d="M60.9,78.38l0-.07Z"/><path class="faffc654-a092-4a38-8015-343d0da7d045" d="M60.5,77.76l-.13-.18Z"/><path class="faffc654-a092-4a38-8015-343d0da7d045" d="M58.35,75.5l-.17-.15Z"/><path class="faffc654-a092-4a38-8015-343d0da7d045" d="M59.92,77l-.11-.12Z"/><path class="faffc654-a092-4a38-8015-343d0da7d045" d="M61.25,79.55a.86.86,0,0,1,0,.16A.86.86,0,0,0,61.25,79.55Z"/><path class="faffc654-a092-4a38-8015-343d0da7d045" d="M55.32,61.25v0Z"/><path class="faffc654-a092-4a38-8015-343d0da7d045" d="M55,60.61l0,.07Z"/><polygon class="faffc654-a092-4a38-8015-343d0da7d045" points="56.62 62.88 56.62 62.88 56.62 62.88 56.62 62.88"/><path class="faffc654-a092-4a38-8015-343d0da7d045" d="M82,61.85c2.09-2.21,2.1-7.32,2.1-10.09,0-.64,0-1.17,0-1.55.08-1.27-2.13-7.56-4-12.51a48.58,48.58,0,0,1-3.58,7.81V61.85Z"/><path class="faffc654-a092-4a38-8015-343d0da7d045" d="M54.8,60l0,.12Z"/><path class="faffc654-a092-4a38-8015-343d0da7d045" d="M61.4,66.29a39.08,39.08,0,0,1,7,5A38.73,38.73,0,0,0,61.4,66.29Z"/><path class="faffc654-a092-4a38-8015-343d0da7d045" d="M63.41,63.41c1.28.79,2.58,1.56,3.83,2.41a23,23,0,0,1,5.81,5.45h8.56V62.88h-5v.53Z"/><polygon class="faffc654-a092-4a38-8015-343d0da7d045" points="55.71 61.85 55.71 61.85 55.71 61.85 55.71 61.85"/><path class="faffc654-a092-4a38-8015-343d0da7d045" d="M71.49,75.93q.15.43.27.9Q71.64,76.36,71.49,75.93Z"/><path class="faffc654-a092-4a38-8015-343d0da7d045" d="M71.08,74.94q.21.45.39.93Q71.29,75.39,71.08,74.94Z"/><path class="faffc654-a092-4a38-8015-343d0da7d045" d="M72,78.07c0,.37.08.74.1,1.13C72.08,78.81,72.05,78.44,72,78.07Z"/><path class="faffc654-a092-4a38-8015-343d0da7d045" d="M68.06,89.58l-.33.32Z"/><path class="faffc654-a092-4a38-8015-343d0da7d045" d="M67.37,90.2a9.86,9.86,0,0,1-1.06.77A9.86,9.86,0,0,0,67.37,90.2Z"/><path class="faffc654-a092-4a38-8015-343d0da7d045" d="M71.8,77c.07.29.12.58.17.88C71.92,77.56,71.87,77.27,71.8,77Z"/><path class="faffc654-a092-4a38-8015-343d0da7d045" d="M72.72,89.44c3.42-.82,7.32-1.53,8.89-.91V74.94H74.94a14.36,14.36,0,0,1,.73,4.15A17.49,17.49,0,0,1,72.72,89.44Z"/><path class="faffc654-a092-4a38-8015-343d0da7d045" d="M50.87,89.25a10.85,10.85,0,0,0,1.12.91A10.85,10.85,0,0,1,50.87,89.25Z"/><path class="faffc654-a092-4a38-8015-343d0da7d045" d="M53.24,91q-.6-.34-1.17-.75a12.92,12.92,0,0,0,1.17.75Z"/><path class="faffc654-a092-4a38-8015-343d0da7d045" d="M49.8,35.81a2,2,0,0,0-1.23.75c-.26.3-.29.5-.27.54a4.48,4.48,0,0,0,1.86.95,3.12,3.12,0,0,1,1.25-1.69A4.3,4.3,0,0,1,49.8,35.81Z"/><path class="faffc654-a092-4a38-8015-343d0da7d045" d="M37,34A33,33,0,0,0,37,29.73s0,0,0-.06h0c-.09-2-.3-3.55-.36-4a2.55,2.55,0,0,0-2,.13c-.43.33-.57,1-.39,2A16.47,16.47,0,0,0,37,34Z"/><path class="faffc654-a092-4a38-8015-343d0da7d045" d="M80.18,34.09a16.59,16.59,0,0,0,2.68-6.26c.12-.72.15-1.65-.39-2a2.52,2.52,0,0,0-2-.06A40.68,40.68,0,0,0,80.18,34.09Z"/><path class="faffc654-a092-4a38-8015-343d0da7d045" d="M76.52,22.74a11.19,11.19,0,0,1,2.76,4.13c.09-.78.16-1.3.19-1.47a21.8,21.8,0,0,0-2.29-2.74c-2.54-2.77-9.83-4.56-18.59-4.56S42.54,19.89,40,22.66a21,21,0,0,0-2.29,2.74v.27c0,.26.09.66.14,1.18a11.71,11.71,0,0,1,2.81-4.11,5.73,5.73,0,0,1,.67-.56c.86-.62,3.92-2.52,7.27-1a6.22,6.22,0,0,1,1.42,1,7.5,7.5,0,0,0,.87.67c.23.14.46.28.7.41A29.34,29.34,0,0,0,58.84,26a29.49,29.49,0,0,0,6.75-2.71l.69-.41a8.55,8.55,0,0,0,.88-.67,6,6,0,0,1,1.42-1c3.35-1.54,6.41.37,7.27,1A5.88,5.88,0,0,1,76.52,22.74Z"/><path class="faffc654-a092-4a38-8015-343d0da7d045" d="M48.17,22.12c-3-1.35-5.94.54-6.72,1.28l.09.16c.53.91,1.63,2.82,4.2,2.4a6.75,6.75,0,0,0,4.35-2.41c-.26-.18-.5-.39-.74-.59A5.34,5.34,0,0,0,48.17,22.12Z"/><path class="faffc654-a092-4a38-8015-343d0da7d045" d="M58.84,39.2a26.69,26.69,0,0,0,7.2-.84c-.26-1.12-1.86-1.69-1.87-1.69l0,0c-1.62.26-3.53.47-4.93.61H58c-1.4-.14-3.3-.35-4.93-.61l0,0s-1.61.57-1.87,1.69a26.69,26.69,0,0,0,7.2.84h.5Z"/><path class="faffc654-a092-4a38-8015-343d0da7d045" d="M37.16,89.28a2.55,2.55,0,0,0-1.34.25c-1.71,1.22-1.78,2.83-1.6,3.09,1,.81,3.42,1.76,6.67,2.59V89.73A22.75,22.75,0,0,0,37.16,89.28Z"/><path class="faffc654-a092-4a38-8015-343d0da7d045" d="M54.45,95.25v.37H42.6a70,70,0,0,0,16,1.61c12-.26,21.53-2.07,24.33-4.61a1.6,1.6,0,0,0,0-.74,3.56,3.56,0,0,0-1.17-2,.2.2,0,0,1-.07-.06,4.2,4.2,0,0,0-.38-.3c-1-.69-5.43.15-9.6,1.22-.06.07-.11.15-.17.23C67.36,96.09,60.38,97.32,54.45,95.25Z"/><path class="faffc654-a092-4a38-8015-343d0da7d045" d="M55.47,92a13,13,0,0,0,8.79,0h0A13,13,0,0,1,55.47,92Z"/><path class="faffc654-a092-4a38-8015-343d0da7d045" d="M79.47,15.51A16.84,16.84,0,0,1,74,14.27a11.83,11.83,0,0,0-2.63-.73,5.19,5.19,0,0,0-2,.54c-1.71.67-4.29,1.7-10.6,2h-.3c-6.31-.26-8.89-1.29-10.6-2a5.19,5.19,0,0,0-2-.54,11.69,11.69,0,0,0-2.63.73,16.84,16.84,0,0,1-5.52,1.24V23.7c.37-.45.87-1,1.53-1.73,3.3-3.61,12.16-4.9,19.35-4.9h0c7.19,0,16,1.29,19.35,4.9.66.72,1.16,1.28,1.53,1.73Z"/><path class="faffc654-a092-4a38-8015-343d0da7d045" d="M42.9,13.3a11.39,11.39,0,0,1,3-.79,6.26,6.26,0,0,1,2.36.61c1.64.65,4.13,1.64,10.26,1.89h.21c6.14-.25,8.63-1.24,10.27-1.89a6.21,6.21,0,0,1,2.36-.61,11.49,11.49,0,0,1,3,.79c2.17.74,5.15,1.76,6.39.85a2.07,2.07,0,0,0,.64-1.84c-.09-3.76-13.82-5.2-22.46-5.23h-.52c-8.64,0-22.37,1.47-22.46,5.23a2.07,2.07,0,0,0,.64,1.84C37.75,15.06,40.73,14,42.9,13.3Z"/><path class="b13ad13f-776e-4e60-9050-e697d2d3bcec" d="M57.74,59.06a2.51,2.51,0,0,1,1.45,1.46l.4,1.16H74.85V45.44H63.3v1.11C57.89,43.7,50,44.46,46,48.94a15.56,15.56,0,0,0-3.63,11c.11,4.67,5.11,8.89,8.45,11.58,2.16,1.74,4.44,3.39,6.51,5.22.45.4,2.43,2.23,2.4,2.89a.23.23,0,0,1-.07.08c-.33.26-1.15,0-1.48-.13a3.35,3.35,0,0,1-1.79-2.27L56,76H42.61V93.89H52.73V92.6c5.65,3.1,13.22,2.49,17.53-2.72A15.74,15.74,0,0,0,74,79.15c-.38-12.35-17-14.56-17.4-20a1.07,1.07,0,0,1,0-.25A2,2,0,0,1,57.74,59.06ZM72.1,79.2a13.85,13.85,0,0,1-3.29,9.58c-4.5,5.48-13.08,5-17.94.47v2.92H44.19V77.72H54.55c1,3.93,5.65,5,6.6,2.52,1.74-4.45-17.06-12.38-17.24-20.34-.09-4.18,1.07-7.45,3.19-9.8,4.34-4.84,13.69-4.46,17.78-.15V47.17H73V60H60.68c-1.1-3.24-6.21-4-6-.68C55.19,66.28,71.75,67.7,72.1,79.2Z"/></g></g></svg>