<svg xmlns="http://www.w3.org/2000/svg" viewBox="0 0 261.15 224.42"><g id="e2d7ad0a-3598-4a28-99d8-db0ccca34dc1" data-name="Capa 2"><g id="bf931eae-3651-46f0-bc8f-f487ed85715b" data-name="Capa 9"><path class="a704bf78-3f3e-44bf-99f6-33e389ab8cc2" d="M191.43,2.38c-22.9-2.35-52,9.5-59.29,29.25-6.48-20-41.41-33-64.38-31.52C7.15,3.91-14.73,72.05,10,118.65c13.31,25.09,32.71,47.18,54,67.09,5.85,5.48,14.75,13,24.07,20.61l-.15,0c7.77,6.35,15.81,12.76,22.62,18.11,1.44-10.57,3.52-23.71,3.13-27.22a31,31,0,0,0-9.53-19.38c-5.57-5.24-11.56-9.74-16.31-15.83-2.08-2.66-3.74-5.6-5.68-8.36s-4.06-5.44-6.22-8.06C71.44,140.21,66.75,135.07,62,130c-4-4.34-8.25-8.58-11.81-13.3-2.4-3.19-5.17-7.89-1.85-11.44,2.37-2.54,5.54-4,8.83-2.59,3.78,1.66,6.94,4.89,9.78,7.8C70.58,114.11,73.9,118,77.23,122c2.08,2.44,4.17,5.63,6.91,7.37,4.82,3.06,13.19,3.19,17.09-1.42,3-3.56,2.58-8.74,1.57-13-1.48-6.22-3.6-12.27-5-18.53A207.59,207.59,0,0,1,92.5,59.88c-.15-3.46-.39-7.23.5-10.61.56-2.13,2.21-3.14,4.17-4,8.09-3.46,10.82,7.09,11.6,12.94,1,7.58,1.63,15,4.09,22.29,1.53,4.54,3.56,9.3,6.84,12.88.77.85,2.45,3,3.12,1.27.94-2.42.62-5.6.74-8.14.16-3.63.74-7.23.86-10.87.13-4.09-.11-8.18-.36-12.25-.34-5.72-1.24-12,.16-17.6.91-3.65,3.84-7.21,8-6.7,3.91.47,5.22,5.08,5.71,8.35a37.16,37.16,0,0,1,.29,6.5c-.1,2.63-.16,5.18-.13,7.82.11,9.4.15,19.21,2.3,28.4.32,1.35.67,3.51,1.7,4.55,1.27,1.28,2.23-.8,2.66-1.88,2-5.09,2.11-11.17,2.35-16.58A102.36,102.36,0,0,0,147,61.41c-.44-4.35-.62-10.21,2.37-13.79a5.51,5.51,0,0,1,8.43-.31c2.5,2.8,3,7.23,3.38,10.81a123.26,123.26,0,0,1-1,28.07,100.09,100.09,0,0,0-1.11,13.28c0,1.67-.35,9,2.89,7.14,3.81-2.19,5.32-7.39,6.25-11.37,1.11-4.81,1.57-9.74,2.33-14.61.53-3.38,1-7.61,3.3-10.35,1.39-1.67,4.36-2.81,6.5-2.09,2.34.77,2.81,3.6,3,5.73.44,5.07,0,10.27-.21,15.35a253.16,253.16,0,0,1-3.4,34.64,299.06,299.06,0,0,1-8.18,35.43A115.77,115.77,0,0,1,166.71,173c-2,4.55-5.16,8.48-7.07,13.08a11.93,11.93,0,0,0-1.21,4.85c.08,2,.91,4.14,1.17,6.21l.24,2c.28,2.37,1.28,8.49,2.19,14.17,12-8.93,24.43-18.41,32-24.93,22.05-19.05,42.34-40.34,56.65-64.88C277.24,77.87,251.83,8.6,191.43,2.38Z"/><path class="a704bf78-3f3e-44bf-99f6-33e389ab8cc2" d="M164.26,135l-20.95-.07h-2q0-7.62.05-15.25l0-7.65a1.61,1.61,0,0,0-1.57-1.58l-13,0a1.59,1.59,0,0,0-1.58,1.56q0,10.48-.07,20.95c0,.65,0,1.3,0,2l-15.25-.05-7.65,0a1.59,1.59,0,0,0-1.58,1.57q0,6.51,0,13a1.41,1.41,0,0,0,.44,1.1,1.45,1.45,0,0,0,1.12.48l20.94.07h2l-.06,15.25,0,7.65a1.59,1.59,0,0,0,1.56,1.58l13,0a1.41,1.41,0,0,0,1.1-.44,1.45,1.45,0,0,0,.48-1.12l.07-21c0-.65,0-1.3,0-2l15.25.06,7.65,0a1.6,1.6,0,0,0,1.58-1.57q0-6.5,0-13A1.59,1.59,0,0,0,164.26,135Z"/></g></g></svg>