<?xml version="1.0" encoding="utf-8"?>
<!-- Generator: Adobe Illustrator 25.3.1, SVG Export Plug-In . SVG Version: 6.00 Build 0)  -->
<svg version="1.1" id="Capa_1" xmlns="http://www.w3.org/2000/svg" xmlns:xlink="http://www.w3.org/1999/xlink" x="0px" y="0px"
	 viewBox="0 0 248 248" style="enable-background:new 0 0 248 248;" xml:space="preserve">
<style type="text/css">
	.st0{fill:#f78031;}
	.st1{fill:#C9C9C9;}
	.st2{fill:#005e91;}
	.st3{fill:#A6CFFB;}
</style>
<circle class="st0" cx="10.5" cy="169.3" r="10.5"/>
<path class="st1" d="M19.8,172.1L79,231.3c1.6,1.6,1.6,4.3,0,6l-0.5,0.5c-1.6,1.6-4.3,1.6-6,0l-59.2-59.2c-1.6-1.6-1.6-4.3,0-6
	l0.5-0.5C15.5,170.5,18.2,170.5,19.8,172.1z"/>
<circle class="st2" cx="78.7" cy="237.5" r="10.5"/>
<circle class="st2" cx="169.3" cy="10.5" r="10.5"/>
<path class="st1" d="M178.9,13.6l58.9,58.9c1.6,1.6,1.6,4.3,0,6l-0.5,0.5c-1.6,1.6-4.3,1.6-6,0l-58.9-58.9c-1.6-1.6-1.6-4.3,0-6
	l0.5-0.5C174.6,12,177.3,12,178.9,13.6z"/>
<circle class="st0" cx="237.5" cy="78.7" r="10.5"/>
<circle class="st0" cx="34.7" cy="153.8" r="10.5"/>
<path class="st1" d="M43.5,156.1l51,51c1.6,1.6,1.6,4.3,0,6l-0.5,0.5c-1.6,1.6-4.3,1.6-6,0l-51-51c-1.6-1.6-1.6-4.3,0-6l0.5-0.5
	C39.2,154.5,41.8,154.5,43.5,156.1z"/>
<circle class="st2" cx="94.2" cy="213.3" r="10.5"/>
<circle class="st2" cx="153.8" cy="34.7" r="10.5"/>
<path class="st1" d="M163.1,37.5L213.6,88c1.6,1.6,1.6,4.3,0,6l-0.5,0.5c-1.6,1.6-4.3,1.6-6,0L156.6,44c-1.6-1.6-1.6-4.3,0-6
	l0.5-0.5C158.8,35.9,161.4,35.9,163.1,37.5z"/>
<circle class="st0" cx="213.3" cy="94.2" r="10.5"/>
<circle class="st0" cx="63.2" cy="142.6" r="10.5"/>
<path class="st1" d="M72.1,145l33.7,33.7c1.6,1.6,1.6,4.3,0,6l-0.5,0.5c-1.6,1.6-4.3,1.6-6,0l-33.7-33.7c-1.6-1.6-1.6-4.3,0-6
	l0.5-0.5C67.7,143.3,70.4,143.3,72.1,145z"/>
<circle class="st2" cx="105.4" cy="184.8" r="10.5"/>
<circle class="st2" cx="142.6" cy="63.2" r="10.5"/>
<path class="st1" d="M152.2,66.3l32.9,32.9c1.6,1.6,1.6,4.3,0,6l-0.5,0.5c-1.6,1.6-4.3,1.6-6,0l-32.9-32.9c-1.6-1.6-1.6-4.3,0-6
	l0.5-0.5C147.9,64.7,150.5,64.7,152.2,66.3z"/>
<circle class="st0" cx="184.8" cy="105.4" r="10.5"/>
<circle class="st0" cx="93.8" cy="133.5" r="10.5"/>
<path class="st1" d="M103.4,136.7l13.5,13.5c1.6,1.6,1.6,4.3,0,6l-0.5,0.5c-1.6,1.6-4.3,1.6-6,0L97,143.1c-1.6-1.6-1.6-4.3,0-6
	l0.5-0.5C99.1,135,101.8,135,103.4,136.7z"/>
<circle class="st2" cx="114.5" cy="154.2" r="10.5"/>
<circle class="st2" cx="133.5" cy="93.8" r="10.5"/>
<path class="st1" d="M143.1,97l13.5,13.5c1.6,1.6,1.6,4.3,0,6l-0.5,0.5c-1.6,1.6-4.3,1.6-6,0l-13.5-13.5c-1.6-1.6-1.6-4.3,0-6
	l0.5-0.5C138.8,95.3,141.5,95.3,143.1,97z"/>
<circle class="st0" cx="154.2" cy="114.5" r="10.5"/>
<path class="st3" d="M127,120.5l0.5,0.5c1.6,1.6,1.6,4.3,0,6l-0.5,0.5c-1.6,1.6-4.3,1.6-6,0l-0.5-0.5c-1.6-1.6-1.6-4.3,0-6l0.5-0.5
	C122.7,118.9,125.3,118.9,127,120.5z"/>
<circle class="st0" cx="124.5" cy="124.5" r="10.5"/>
<circle class="st2" cx="125.7" cy="125.7" r="10.5"/>
</svg>
