<svg xmlns="http://www.w3.org/2000/svg" viewBox="0 0 249.34 249.34"><defs><style>.b65beacc-d856-420d-9082-8714ab7619a7{fill:#634092;}.ae4131aa-2cea-4f94-9780-dbba8bb643d6{fill:#241a43;}</style></defs><g id="ba16c844-0d4f-42ea-8880-ea56e9f8ab39" data-name="Capa 2"><g id="e3537a2f-1d9d-4f40-ba1d-29a8b606f603" data-name="Capa 9"><rect class="b65beacc-d856-420d-9082-8714ab7619a7" x="182.36" y="23.1" width="71.9" height="15.85" transform="translate(350.75 207.33) rotate(-135)"/><polygon class="ae4131aa-2cea-4f94-9780-dbba8bb643d6" points="198.41 78.53 200.95 67.06 222.04 45.97 203.37 27.3 182.28 48.39 170.81 50.92 198.41 78.53"/><path class="b65beacc-d856-420d-9082-8714ab7619a7" d="M144.41,155.78,88.68,211.51a14,14,0,0,1-19.82,0l-31-31a14,14,0,0,1,0-19.82l55.73-55.73Z"/><path class="ae4131aa-2cea-4f94-9780-dbba8bb643d6" d="M200.12,80.24l-31-31a14,14,0,0,0-19.82,0L37.84,160.66a14,14,0,0,0,0,19.82L51,193.59l-50,50a3.39,3.39,0,0,0,4.8,4.8l50-50L68.86,211.5a14,14,0,0,0,19.82,0L106,194.2h0l4.8-4.8h0l89.34-89.34A14,14,0,0,0,200.12,80.24Zm-4.8,15-5.94,5.94L168.76,80.59,164,85.38,184.58,106,177,113.63l-7.91-7.91-4.8,4.8,7.91,7.91-6.47,6.46-20.62-20.62-4.79,4.8,20.62,20.62-7.6,7.6-7.91-7.91-4.8,4.79,7.91,7.91-6.49,6.5L121.39,128l-4.8,4.8,20.62,20.62L129.64,161,121.73,153l-4.8,4.79,7.91,7.91-7.57,7.57L96.65,152.69l-4.79,4.8,20.62,20.62L106,184.6l-7.91-7.91-4.8,4.8,7.91,7.91L94.63,196,74,175.34l-4.8,4.79,20.62,20.62-6,6a7.25,7.25,0,0,1-10.23,0l-31-31a7.24,7.24,0,0,1,0-10.23L154.08,54a7.22,7.22,0,0,1,10.22,0l31,31a7.22,7.22,0,0,1,0,10.22Z"/></g></g></svg>