<svg xmlns="http://www.w3.org/2000/svg" viewBox="0 0 227.95 268.52"><defs><style>.acf7cadc-a306-440e-ad66-88362e97893f{fill:#241a43;}</style></defs><g id="f3bcdcce-a6ac-4560-977f-d451a9be4555" data-name="Capa 2"><g id="aed55508-c98c-4383-9391-283bc6191b31" data-name="Capa 9"><path class="acf7cadc-a306-440e-ad66-88362e97893f" d="M226.89,82.79c-2-16.14-6.77-30.6-14.17-43a81,81,0,0,0-31-30.14A79.82,79.82,0,0,0,148.28.17a98.26,98.26,0,0,0-35.15,4.49A131.45,131.45,0,0,0,79,21.19c-22.67,15.16-42.2,37-56.48,63.29C4.63,117.29-3,153.25,1.05,185.73c2,16.14,6.78,30.6,14.18,43a81.05,81.05,0,0,0,31,30.14,80,80,0,0,0,33.48,9.51,98.21,98.21,0,0,0,35.14-4.49A131.3,131.3,0,0,0,149,247.33c22.68-15.16,42.21-37,56.49-63.29C223.31,151.23,230.92,115.27,226.89,82.79Zm-29.24,97c-28.05,51.55-75.79,82.27-117.43,79.68A71.15,71.15,0,0,1,50.44,251c-41.18-22.41-52.82-82.54-30-141,.11-.25,4.24-9.88,9.94-15.76,7.9-8.13,15.19-4.07,14.15,3.32-1.44,10.19-5,20.38.28,26.89,7.15,8.79,28.35,17,28.35,17a10.07,10.07,0,0,1,5.47-2c-12-7.64-24.39-11.24-28.58-19.36C42.4,105.4,59.07,83.52,53,75c-6.27-8.76-.84-17.66,2.75-22,27.05-29.5,61.2-45.83,92-43.91a71.16,71.16,0,0,1,29.79,8.44C223.72,42.63,232.74,115.3,197.65,179.79Z"/><path class="acf7cadc-a306-440e-ad66-88362e97893f" d="M86.09,161.37a.3.3,0,0,0-.45.11c-4.28,8-10.43,14.21-17.35,19.91A23.82,23.82,0,0,0,60,195.18a14.46,14.46,0,0,1-1.85,4.87c-1.74,2.72-3.91,3.45-6.67,1.93-5-2.73-10.33-3.94-15.85-4.81-1.73-.27-3.39-1-5.11-1.27-4.75-.86-6.33-4.59-7.84-8.42-.26-.66-.76-1.24-1-1.9-.27-.81-.78-2.16-.47-2.42a4.72,4.72,0,0,1,2.68-.67,4.53,4.53,0,0,1,1.81.66c12.49,5.61,27-1,32.32-12.94,1.85-4.14,3.26-8.54,5.56-12.4a62.93,62.93,0,0,1,9.32-12.64c5.57-5.55,13.42-4.45,17.31,2.43a38.38,38.38,0,0,1,4.76,13.75c1.32,10.64,1.77,21.38,2.48,32.09.13,2.1.16,4.2.19,6.31a.31.31,0,0,0,.62,0c1.11-12.56-.34-25.09-1.14-37.58.36-.12.61-.27.67-.22,4.37,4,9.59,3.1,14.77,2.7,9.69-.74,20.8-3.42,28.34-7a.31.31,0,0,0-.22-.58c-2.5.64-5,1.29-7.52,1.74-7.91,1.41-15.86,2.61-23.78,4a8,8,0,0,1-8.25-3.43c-4.38-6-9.06-11.83-12.63-18.27-5.33-9.61-13.49-15.5-23-20.07-2.24-1.07-4.41-2.33-6.61-3.5-1.56-.83-.68-1.67.31-1.73a11.15,11.15,0,0,0,3.71.59.35.35,0,0,0,.19-.65c-1-.65-1.83-1.13-2.51-1.59s-2-1.74-1.85-2.11c.23-.93,1.7-.81,2.91-.61,1,.16,2.05.32,3.07.5.77.09.8-.41.35-.69A25.52,25.52,0,0,1,62.2,109c-.49-.51-1.36-1.08-1-2a.47.47,0,0,1,.05-.1,2.57,2.57,0,0,1,2.14-.56c1.64.15,3.26.54,4.89.83.78,0,.76-.51.31-.92a19.86,19.86,0,0,1-2.29-1.76c-.38-.4-.8-1.21-.64-1.58a1.75,1.75,0,0,1,1.55-.73,27.3,27.3,0,0,1,4.7,1.57c1.73.76,3.36,1.71,5.16,2.66a.31.31,0,0,0,.44-.17,25.29,25.29,0,0,1,1.2-3.28,1.92,1.92,0,0,1,1.43-1c.43,0,1,.75,1.17,1.28a10.19,10.19,0,0,1,.55,3c.15,8.25,4.17,14.6,9.74,20.25,6,6.13,12.1,12.24,18,18.47a15.17,15.17,0,0,1,1,1.21l1.23-.8-.77-1.4a.31.31,0,0,1,.16-.44c2.3-.88,4.6-1.73,6.87-2.62,8.17-3.24,16.3-6.63,24.54-9.68a34,34,0,0,1,9.44-2c6.19-.42,11.64,1.44,15.67,6.53a.3.3,0,0,0,.47,0l.2-.22a.31.31,0,0,0,0-.42c-1.23-1.35-2.3-3-3.8-3.91-6.31-3.89-13.06-5.51-20.44-3.31a85.15,85.15,0,0,1-10,2.37c-6,1-8.29-.62-9.5-6.54a.31.31,0,0,0-.3-.25c-2.84,0-5-1-4.83-4.54,0-.54-1.06-1.29-1.78-1.66-1.88-.94-3.1-2.3-2.35-4.41.58-1.64-.18-2.29-1.27-3.15-3.22-2.51-3.26-3.78-.47-6.73a21.6,21.6,0,0,0,2.35-2.73c1.45-2.18,1.84-4.49.09-6.7-2.23-2.8-2.7-5.73-2-9.33,1-5.26,1-10.69,1.78-16a32.62,32.62,0,0,1,9.31-18.59C137,37.75,151,32.06,167.86,35.36c9.26,1.8,17.7,5.35,24.94,11.52,12.47,10.63,16.46,24.13,13.56,40a56.13,56.13,0,0,1-9.75,22.52c-7.46,10.54-11.48,22.11-11.42,35.05.06,12.74-2.29,24.91-8.87,36-15,25.14-36.42,42.09-64.48,50.44a44.24,44.24,0,0,1-22.82.42c-13.91-3.22-20.77-13-23.83-26.07-1.38-5.89-.62-11.82,1.25-17.53a13.18,13.18,0,0,1,3-4.53c3.72-4,7.82-7.66,11.32-11.83,2.32-2.76,3.91-6.13,5.8-9.24a.3.3,0,0,0-.08-.41Z"/><path class="acf7cadc-a306-440e-ad66-88362e97893f" d="M27.74,146.15l-1.69,4.16c-1.26-2-2.31-3.73-3.41-5.44-3.78-5.88-3.72-11.7.28-17.46.2-.29.2-.75.43-1,.62-.67,1.32-1.27,2-1.9.58.74,1.51,1.4,1.68,2.22a26.24,26.24,0,0,0,5.17,11.52c6.91,8.4,14.89,10.71,25.22,7.45a125,125,0,0,1,15.15-3.5c-6,5.19-9.44,12-12.74,18.93-3-.55-6-1.15-9-1.63a26.92,26.92,0,0,0-13.4,1.13c-2.83,1-5.95,1.87-8.41-.48-2.64-2.5-2.33-5.8-1.44-9.1a39,39,0,0,0,.71-4.86Z"/><path class="acf7cadc-a306-440e-ad66-88362e97893f" d="M102.1,127.34a17.09,17.09,0,0,1-1-1.72c-.54-1.22-1.07-1.76-.58-2.64.82-1.14,2-.27,2.79.24.52.35,1.05.64,1.9,1.18a.13.13,0,0,0,.19-.15,10.06,10.06,0,0,1-.41-1.38c-.1-.64-.48-1.23.23-2,.61-.61,1.79,0,2.26.44,1.79,1.72,3.41,3.62,5.42,5.82a.13.13,0,0,1-.08.22l-3,.39a.14.14,0,0,0,0,.26c1.39.44,2.32.72,3.23,1.07A7.22,7.22,0,0,1,117.6,136c-.1,2-.72,3.7-3,4.11s-4.26,2.72-6.68-.2c-2.93-3.55-6.89-6.25-9.57-10a16.72,16.72,0,0,1-1.23-2c-.35-.63.4-1.28,1.21-1s2.69,1,3.12,1.17C102.12,128.23,102.72,128.34,102.1,127.34Z"/></g></g></svg>