<svg xmlns="http://www.w3.org/2000/svg" viewBox="0 0 248.03 248.03"><defs><style>.a888b24a-2a44-424a-922a-31026ec9ca78{fill:#3a2666;}.fac7c99f-644d-4770-bf48-93d365f8c448{fill:#77549f;}.b95f3555-f854-4119-952f-0e4165300da2{fill:#ed6d1d;}</style></defs><g id="fe07e640-4358-4a97-9139-cdeb951ef9a3" data-name="Capa 2"><g id="bb9f13e3-f843-4178-a1c2-6ef61ce12ebb" data-name="Capa 9"><circle class="a888b24a-2a44-424a-922a-31026ec9ca78" cx="10.51" cy="169.3" r="10.51"/><rect class="fac7c99f-644d-4770-bf48-93d365f8c448" x="0.1" y="200.38" width="92.12" height="9.14" rx="4.21" transform="translate(158.44 27.39) rotate(45)"/><circle class="a888b24a-2a44-424a-922a-31026ec9ca78" cx="78.72" cy="237.51" r="10.51"/><circle class="a888b24a-2a44-424a-922a-31026ec9ca78" cx="169.3" cy="10.51" r="10.51"/><rect class="fac7c99f-644d-4770-bf48-93d365f8c448" x="159.26" y="41.74" width="91.68" height="9.14" rx="4.21" transform="translate(92.82 -131.46) rotate(45)"/><circle class="a888b24a-2a44-424a-922a-31026ec9ca78" cx="237.51" cy="78.72" r="10.51"/><circle class="a888b24a-2a44-424a-922a-31026ec9ca78" cx="34.69" cy="153.78" r="10.51"/><rect class="fac7c99f-644d-4770-bf48-93d365f8c448" x="25.48" y="180.29" width="80.57" height="9.14" rx="4.21" transform="translate(149.97 7.64) rotate(45)"/><circle class="a888b24a-2a44-424a-922a-31026ec9ca78" cx="94.25" cy="213.34" r="10.51"/><circle class="a888b24a-2a44-424a-922a-31026ec9ca78" cx="153.78" cy="34.69" r="10.51"/><rect class="fac7c99f-644d-4770-bf48-93d365f8c448" x="145.19" y="61.45" width="79.84" height="9.14" rx="4.21" transform="translate(100.9 -111.56) rotate(45)"/><circle class="a888b24a-2a44-424a-922a-31026ec9ca78" cx="213.34" cy="94.25" r="10.51"/><circle class="a888b24a-2a44-424a-922a-31026ec9ca78" cx="63.18" cy="142.58" r="10.51"/><rect class="fac7c99f-644d-4770-bf48-93d365f8c448" x="57.64" y="160.47" width="56.01" height="9.14" rx="4.21" transform="translate(141.79 -12.22) rotate(45)"/><circle class="a888b24a-2a44-424a-922a-31026ec9ca78" cx="105.45" cy="184.84" r="10.51"/><circle class="a888b24a-2a44-424a-922a-31026ec9ca78" cx="142.58" cy="63.18" r="10.51"/><rect class="fac7c99f-644d-4770-bf48-93d365f8c448" x="137.9" y="81.44" width="55" height="9.14" rx="4.21" transform="translate(109.26 -91.76) rotate(45)"/><circle class="a888b24a-2a44-424a-922a-31026ec9ca78" cx="184.84" cy="105.45" r="10.51"/><circle class="a888b24a-2a44-424a-922a-31026ec9ca78" cx="93.84" cy="133.54" r="10.51"/><rect class="fac7c99f-644d-4770-bf48-93d365f8c448" x="93.2" y="142.06" width="27.48" height="9.14" rx="4.21" transform="translate(135 -32.67) rotate(45)"/><circle class="a888b24a-2a44-424a-922a-31026ec9ca78" cx="114.49" cy="154.18" r="10.51"/><circle class="a888b24a-2a44-424a-922a-31026ec9ca78" cx="133.54" cy="93.84" r="10.51"/><rect class="fac7c99f-644d-4770-bf48-93d365f8c448" x="132.89" y="102.37" width="27.48" height="9.14" rx="4.21" transform="translate(118.56 -72.36) rotate(45)"/><circle class="a888b24a-2a44-424a-922a-31026ec9ca78" cx="154.18" cy="114.49" r="10.51"/><rect class="b95f3555-f854-4119-952f-0e4165300da2" x="119.44" y="119.44" width="9.14" height="9.14" rx="4.21" transform="translate(124.01 -51.37) rotate(45)"/><circle class="a888b24a-2a44-424a-922a-31026ec9ca78" cx="124.5" cy="124.5" r="10.51"/><circle class="a888b24a-2a44-424a-922a-31026ec9ca78" cx="125.69" cy="125.69" r="10.51"/></g></g></svg>